<svg width="99" height="91" viewBox="0 0 99 91" fill="none" xmlns="http://www.w3.org/2000/svg">
<g filter="url(#filter0_d_17_1558)">
<path d="M24.0132 61.6781C24.0132 56.9052 23.9579 52.5594 24.0735 48.2186C24.0936 47.5252 24.7266 46.4953 25.3345 46.2391C28.0174 45.1037 30.7605 44.0737 33.5539 43.2548C34.6743 42.9282 36.1212 42.888 37.1813 43.3151C42.6726 45.5156 48.1237 47.8217 53.5145 50.2583C56.4335 51.5747 56.6445 52.7804 54.6399 56.4379C57.3228 55.403 59.4982 54.579 61.6636 53.7199C63.9093 52.8256 66.1752 51.9615 68.3657 50.9517C70.1743 50.1177 71.7268 50.2533 72.6361 52.067C73.5907 53.9711 72.41 55.2673 70.8375 56.1516C67.4262 58.0758 63.9746 59.9247 60.5382 61.8037C60.1714 62.0046 59.7494 62.1403 59.4429 62.4065C55.4287 65.9083 51.319 65.5516 46.8275 63.1903C43.5267 61.452 39.8892 60.3567 36.4578 58.8495C34.403 57.9452 32.534 57.8598 30.4842 58.9399C28.5198 59.9749 26.3896 60.6933 24.0132 61.6831V61.6781Z" fill="#63FFF6"/>
<path d="M58.9508 24.0227C62.126 24.0227 65.3013 24.0629 68.4714 24.0076C70.4007 23.9725 71.1945 24.8768 71.1844 26.7407C71.1593 31.2523 71.1593 35.7589 71.1844 40.2705C71.1945 42.0742 70.2449 42.868 68.5518 42.873C62.121 42.8881 55.6902 42.878 49.2594 42.883C47.3905 42.883 46.5715 42.0139 46.6017 40.0947C46.672 35.6685 46.677 31.2423 46.6017 26.8161C46.5665 24.7713 47.3955 23.9473 49.4302 24.0026C52.6004 24.088 55.7756 24.0227 58.9508 24.0277V24.0227ZM61.1614 33.1062C61.3825 33.5232 61.5332 33.7242 61.6035 33.9553C61.8798 34.8646 62.131 35.784 62.3923 36.6934C61.4076 36.402 60.242 36.3417 59.4733 35.7639C58.2273 34.8194 57.2527 33.5232 56.1424 32.3978C54.2784 30.5138 52.6808 30.3631 51.475 32.5837C50.5003 34.3723 50.5154 36.6934 50.0582 38.9492H67.1501C67.2757 35.8644 63.9799 32.5887 61.1614 33.1112V33.1062ZM65.3414 27.1929C64.5828 28.3735 63.7438 29.107 63.8191 29.725C63.8995 30.3781 64.8541 30.9207 65.4218 31.5136C66.0197 30.8655 66.9592 30.2827 67.0948 29.5492C67.1903 29.0267 66.2106 28.2982 65.3414 27.1979V27.1929Z" fill="#63FFF6"/>
</g>
<defs>
<filter id="filter0_d_17_1558" x="0" y="0" width="98.9785" height="91" filterUnits="userSpaceOnUse" color-interpolation-filters="sRGB">
<feFlood flood-opacity="0" result="BackgroundImageFix"/>
<feColorMatrix in="SourceAlpha" type="matrix" values="0 0 0 0 0 0 0 0 0 0 0 0 0 0 0 0 0 0 127 0" result="hardAlpha"/>
<feOffset dx="1" dy="1"/>
<feGaussianBlur stdDeviation="12.5"/>
<feComposite in2="hardAlpha" operator="out"/>
<feColorMatrix type="matrix" values="0 0 0 0 0.388235 0 0 0 0 1 0 0 0 0 0.964706 0 0 0 1 0"/>
<feBlend mode="normal" in2="BackgroundImageFix" result="effect1_dropShadow_17_1558"/>
<feBlend mode="normal" in="SourceGraphic" in2="effect1_dropShadow_17_1558" result="shape"/>
</filter>
</defs>
</svg>
