<svg width="73" height="91" viewBox="0 0 73 91" fill="none" xmlns="http://www.w3.org/2000/svg">
<g filter="url(#filter0_d_17_1519)">
<path d="M30.3539 38.0705C30.3539 35.0657 30.3329 32.0566 30.3581 29.0517C30.3875 26.051 32.3039 24.0169 35.0567 24.0001C37.6917 23.9833 39.7594 25.9543 39.793 28.8205C39.8729 35.0404 39.8645 41.2646 39.793 47.4845C39.7594 50.3423 37.6917 52.3553 35.0777 52.3469C32.3712 52.3385 30.3833 50.233 30.3581 47.2911C30.3329 44.2148 30.3539 41.1385 30.3539 38.0621V38.0705Z" fill="#63FFF6"/>
<path d="M36.8761 61.8239C38.2294 61.8239 39.6373 61.6684 40.9863 61.8869C41.6924 62.0004 42.2933 62.7779 42.9405 63.2528C42.369 63.8243 41.8184 64.8708 41.2259 64.8918C37.0989 65.0389 32.9635 65.0305 28.8365 64.9002C28.2817 64.8834 27.7606 63.8873 27.2227 63.3452C27.7816 62.8409 28.2859 61.992 28.9079 61.8953C30.3326 61.6768 31.8119 61.8281 33.2156 61.8281C33.8838 59.6301 33.43 58.5206 31.1732 57.8397C26.9705 56.5748 24.1127 52.3343 24.0539 47.9425C24.0287 45.9127 23.9152 43.866 24.1211 41.8571C24.1968 41.1259 25.0919 40.4786 25.6131 39.7894C26.1468 40.4828 27.0378 41.1258 27.1428 41.8739C27.374 43.5928 27.1932 45.3663 27.2311 47.1146C27.3403 52.1494 30.6142 55.5577 35.2581 55.5031C39.6331 55.4526 42.9363 51.8132 42.9616 47.0137C42.97 45.194 42.8439 43.3617 43.033 41.5587C43.1002 40.9283 43.9155 40.3736 44.3904 39.7852C44.962 40.2853 46.0253 40.7896 46.0211 41.2898C46.0043 44.4922 46.0967 47.7576 45.4831 50.8718C44.7939 54.3642 42.2723 56.663 38.9102 57.9154C36.4643 58.8274 36.4559 58.8106 36.8761 61.8196V61.8239Z" fill="#63FFF6"/>
</g>
<defs>
<filter id="filter0_d_17_1519" x="0" y="0" width="72.0215" height="91" filterUnits="userSpaceOnUse" color-interpolation-filters="sRGB">
<feFlood flood-opacity="0" result="BackgroundImageFix"/>
<feColorMatrix in="SourceAlpha" type="matrix" values="0 0 0 0 0 0 0 0 0 0 0 0 0 0 0 0 0 0 127 0" result="hardAlpha"/>
<feOffset dx="1" dy="1"/>
<feGaussianBlur stdDeviation="12.5"/>
<feComposite in2="hardAlpha" operator="out"/>
<feColorMatrix type="matrix" values="0 0 0 0 0.203922 0 0 0 0 0.988235 0 0 0 0 0.945098 0 0 0 1 0"/>
<feBlend mode="normal" in2="BackgroundImageFix" result="effect1_dropShadow_17_1519"/>
<feBlend mode="normal" in="SourceGraphic" in2="effect1_dropShadow_17_1519" result="shape"/>
</filter>
</defs>
</svg>
