<svg width="90" height="90" viewBox="0 0 90 90" fill="none" xmlns="http://www.w3.org/2000/svg">
<g filter="url(#filter0_d_17_1525)">
<path d="M44.0649 53.9078C42.0029 53.9078 39.9231 54.0545 37.8833 53.8323C37.1012 53.7478 36.4124 52.8102 35.6836 52.2636C36.4257 51.7303 37.1545 50.7615 37.9144 50.7304C41.9584 50.5749 46.0158 50.5882 50.0642 50.7304C50.7708 50.7571 51.4462 51.6814 52.1351 52.1925C51.4329 52.7657 50.7797 53.739 50.0197 53.8278C48.06 54.0634 46.0513 53.9078 44.0604 53.9078H44.0649Z" fill="#63FFF6"/>
<path d="M24 43.869C24.0178 32.7503 32.9146 23.9557 44.0956 24.0002C55.0321 24.0446 63.9956 33.0169 64 43.9224C64 54.8634 54.8633 64.0046 43.9223 64.0001C32.9368 63.9912 23.9778 54.9434 24 43.869ZM43.9 60.5472C53.1657 60.5605 60.5248 53.2458 60.547 43.989C60.5693 34.799 53.1345 27.2798 43.9978 27.2531C34.9233 27.2265 27.2708 34.8345 27.2575 43.9002C27.2441 53.0458 34.7277 60.5294 43.9 60.5427V60.5472Z" fill="#63FFF6"/>
<path d="M54.2681 43.5667C53.3882 44.2422 52.5838 45.3132 51.6106 45.491C50.2019 45.7487 49.0465 44.8777 48.9842 43.2423C48.922 41.6558 49.9041 40.5449 51.344 40.6915C52.3705 40.7982 53.2949 41.8825 54.2637 42.5313C54.2637 42.8735 54.2681 43.2201 54.2725 43.5623L54.2681 43.5667Z" fill="#63FFF6"/>
<path d="M39.2784 43.6156C38.3762 44.2689 37.5408 45.3221 36.5542 45.4865C35.1233 45.7221 33.9901 44.7488 33.9634 43.1757C33.9367 41.6514 34.9589 40.496 36.3987 40.6915C37.4297 40.8337 38.3274 41.9447 39.2873 42.6246C39.2873 42.9535 39.2828 43.2823 39.2784 43.6112V43.6156Z" fill="#63FFF6"/>
</g>
<defs>
<filter id="filter0_d_17_1525" x="0" y="0" width="90" height="90.0001" filterUnits="userSpaceOnUse" color-interpolation-filters="sRGB">
<feFlood flood-opacity="0" result="BackgroundImageFix"/>
<feColorMatrix in="SourceAlpha" type="matrix" values="0 0 0 0 0 0 0 0 0 0 0 0 0 0 0 0 0 0 127 0" result="hardAlpha"/>
<feOffset dx="1" dy="1"/>
<feGaussianBlur stdDeviation="12.5"/>
<feComposite in2="hardAlpha" operator="out"/>
<feColorMatrix type="matrix" values="0 0 0 0 0.388235 0 0 0 0 1 0 0 0 0 0.964706 0 0 0 1 0"/>
<feBlend mode="normal" in2="BackgroundImageFix" result="effect1_dropShadow_17_1525"/>
<feBlend mode="normal" in="SourceGraphic" in2="effect1_dropShadow_17_1525" result="shape"/>
</filter>
</defs>
</svg>
