<svg width="95" height="93" viewBox="0 0 95 93" fill="none" xmlns="http://www.w3.org/2000/svg">
<g filter="url(#filter0_d_17_1535)">
<path d="M46.0387 24C46.8758 25.0997 47.4946 25.6162 47.7261 26.2662C48.9772 29.8236 50.2372 33.3854 51.288 37.0051C51.889 39.0798 52.8284 40.0282 55.1481 39.899C58.6965 39.7031 62.2672 39.8234 65.8246 39.9525C66.7373 39.9881 67.6278 40.5713 68.5271 40.9053C68.0329 41.6443 67.6857 42.566 67.0178 43.0869C64.0482 45.4154 61.0295 47.6861 57.9441 49.8632C56.4659 50.9051 56.0652 51.8712 56.7464 53.7011C58.0866 57.2985 59.1017 61.0251 60.1524 64.7204C60.3483 65.4105 60.1034 66.2253 60.0589 66.9822C59.1818 66.8041 58.1444 66.8709 57.4588 66.4079C54.1374 64.1862 50.8605 61.8843 47.6727 59.4757C46.5685 58.6431 45.8295 58.6609 44.7654 59.4579C41.5597 61.8443 38.3185 64.1817 35.006 66.4168C34.3115 66.8842 33.2607 66.8219 32.3747 67C32.3436 66.1229 32.0898 65.1835 32.3213 64.3776C33.3898 60.6065 34.494 56.8355 35.7896 53.1356C36.3283 51.5996 35.8208 50.8205 34.681 50.0012C31.5021 47.7039 28.3365 45.3887 25.2422 42.98C24.6411 42.5125 24.4052 41.582 24 40.8652C24.7524 40.5491 25.496 39.9747 26.2573 39.9525C30.3356 39.8367 34.4183 39.81 38.4966 39.8545C39.6586 39.8679 40.2107 39.4627 40.5669 38.3764C41.8536 34.4361 43.2026 30.5181 44.5784 26.609C44.8366 25.8744 45.3397 25.2199 46.0343 24H46.0387Z" fill="#63FFF6"/>
</g>
<defs>
<filter id="filter0_d_17_1535" x="0" y="0" width="94.5273" height="93" filterUnits="userSpaceOnUse" color-interpolation-filters="sRGB">
<feFlood flood-opacity="0" result="BackgroundImageFix"/>
<feColorMatrix in="SourceAlpha" type="matrix" values="0 0 0 0 0 0 0 0 0 0 0 0 0 0 0 0 0 0 127 0" result="hardAlpha"/>
<feOffset dx="1" dy="1"/>
<feGaussianBlur stdDeviation="12.5"/>
<feComposite in2="hardAlpha" operator="out"/>
<feColorMatrix type="matrix" values="0 0 0 0 0.388235 0 0 0 0 1 0 0 0 0 0.964706 0 0 0 1 0"/>
<feBlend mode="normal" in2="BackgroundImageFix" result="effect1_dropShadow_17_1535"/>
<feBlend mode="normal" in="SourceGraphic" in2="effect1_dropShadow_17_1535" result="shape"/>
</filter>
</defs>
</svg>
