<svg width="87" height="94" viewBox="0 0 87 94" fill="none" xmlns="http://www.w3.org/2000/svg">
<g filter="url(#filter0_d_17_1551)">
<path d="M60.6615 29.6524C59.3425 29.6524 58.1604 29.4423 57.115 29.7257C56.4262 29.9113 55.9279 30.8052 55.3417 31.3817C55.967 31.9972 56.4946 32.9155 57.2371 33.1549C58.1897 33.4627 59.3181 33.2282 60.5687 33.2282V35.9345C59.1911 37.0775 58.1311 37.9617 57.071 38.841C58.1164 39.6275 59.1569 40.4091 60.2023 41.1956C60.3488 41.0588 60.5003 40.9171 60.6468 40.7803V44.2633C59.6747 44.2633 58.6489 44.0288 57.8135 44.3268C56.9001 44.6492 56.1575 45.465 55.3369 46.0659C56.1331 46.6765 56.8561 47.4923 57.7549 47.8342C58.5267 48.1322 59.5086 47.8977 60.5784 47.8977V50.5503C59.1667 51.752 58.1213 52.641 57.071 53.5301C58.1262 54.3019 59.1813 55.0737 60.6517 56.1435V58.9329C59.4891 58.9329 58.3118 58.7033 57.2908 59.0061C56.5337 59.2308 55.9768 60.1443 55.332 60.7452C55.9768 61.3411 56.5337 62.2253 57.2908 62.4647C58.2483 62.7627 59.367 62.538 60.7494 62.538C60.7494 63.7055 60.7445 64.7264 60.7494 65.7474C60.7592 67.2862 59.8897 67.97 58.4584 67.9798C53.8274 68.0042 49.1916 68.0091 44.5557 67.9798C42.5529 67.9652 42.2842 66.6218 42.2891 64.9756C42.3184 54.0821 42.3038 43.1886 42.3038 32.2952C42.3038 30.5073 42.3478 28.7194 42.294 26.9315C42.2305 24.87 43.1684 23.9761 45.2299 24.0005C49.133 24.0542 53.0361 24.0103 56.9343 24.0151C60.4514 24.0151 60.8178 24.4011 60.7494 27.9817C60.7445 28.3823 60.7006 28.7829 60.6419 29.6426L60.6615 29.6524Z" fill="#63FFF6"/>
<path d="M24.3223 36.9554C26.0369 36.4767 27.5757 36.3302 28.7969 35.6316C30.1305 34.8696 31.0342 34.977 32.3141 35.7049C33.4718 36.3644 34.9226 36.5109 36.6715 37.0043V55.489H24.3223V36.9603V36.9554Z" fill="#63FFF6"/>
<path d="M36.8866 60.8722C36.6522 63.3391 37.9467 66.5387 35.0548 67.2861C32.0847 68.0531 28.5431 68.0628 25.6366 67.1591C23.1794 66.3922 24.2248 63.2511 24.2004 60.8722H36.8866Z" fill="#63FFF6"/>
<path d="M33.9259 30.136C31.7423 30.136 30.14 30.1458 28.5378 30.1263C28.1616 30.1263 27.7855 30.0188 27.082 29.9064C28.0053 27.9866 28.7771 26.2476 29.715 24.6014C29.842 24.3815 31.1756 24.4402 31.332 24.7186C32.2259 26.3013 32.9293 27.9915 33.9259 30.136Z" fill="#63FFF6"/>
</g>
<defs>
<filter id="filter0_d_17_1551" x="0" y="0" width="86.7568" height="94" filterUnits="userSpaceOnUse" color-interpolation-filters="sRGB">
<feFlood flood-opacity="0" result="BackgroundImageFix"/>
<feColorMatrix in="SourceAlpha" type="matrix" values="0 0 0 0 0 0 0 0 0 0 0 0 0 0 0 0 0 0 127 0" result="hardAlpha"/>
<feOffset dx="1" dy="1"/>
<feGaussianBlur stdDeviation="12.5"/>
<feComposite in2="hardAlpha" operator="out"/>
<feColorMatrix type="matrix" values="0 0 0 0 0.388235 0 0 0 0 1 0 0 0 0 0.964706 0 0 0 1 0"/>
<feBlend mode="normal" in2="BackgroundImageFix" result="effect1_dropShadow_17_1551"/>
<feBlend mode="normal" in="SourceGraphic" in2="effect1_dropShadow_17_1551" result="shape"/>
</filter>
</defs>
</svg>
