<svg width="139" height="131" viewBox="0 0 139 131" fill="none" xmlns="http://www.w3.org/2000/svg">
<g filter="url(#filter0_d_152_103)">
<path d="M58.8855 94.8811C49.9659 94.8811 41.0408 94.8924 32.1213 94.8755C27.9716 94.8642 25.0792 91.9981 25.0792 87.8819C25.0623 75.6855 25.192 63.489 24.9947 51.2982C24.9439 47.9816 28.6933 44.1301 32.1664 44.2202C42.2079 44.4849 52.2607 44.3216 62.3135 44.3103C63.3734 44.3103 64.4278 44.2033 66.0346 44.1132C59.6861 40.4926 57.8424 36.1568 59.1448 31.6577C60.5205 26.9166 64.783 23.3804 70.2632 24.0899C74.5369 24.6417 78.0608 27.9583 78.9685 32.2208C79.9834 37.0127 77.2263 41.5005 72.4621 44.1076C73.4431 44.1808 74.4242 44.3103 75.3996 44.3103C85.4467 44.3272 95.4995 44.3159 105.547 44.3328C110.102 44.3328 112.904 47.0919 112.91 51.5741C112.921 63.5791 112.763 75.5898 112.995 87.5891C113.068 91.3055 109.302 95.1176 105.58 94.9881C96.7625 94.684 87.9275 94.8811 79.0982 94.8811L79.1828 94.9881C79.1828 84.3964 79.1828 73.8048 79.2053 63.2131C79.2109 60.5497 81.1674 59.187 83.4114 60.2851C88.0008 62.5318 92.5677 64.8292 97.1233 67.1491C99.6548 68.4329 101.521 68.1176 102.587 66.1355C103.511 64.4069 102.564 62.2671 100.382 61.1466C96.1592 58.9674 91.9475 56.7658 87.7132 54.6092C82.8363 52.1259 77.8465 50.3747 72.1689 50.904C68.3519 51.2588 64.4785 50.966 60.6333 50.9829C59.7932 50.9829 58.8347 50.8477 58.13 51.18C51.0146 54.5472 43.905 57.9257 36.8911 61.4844C35.2053 62.3403 34.4329 64.2042 35.4534 66.0567C36.4739 67.9036 38.295 68.585 40.2458 67.6728C44.8803 65.4992 49.4472 63.1962 54.0141 60.8876C57.2786 59.2377 58.7783 60.1049 58.784 63.7818C58.7953 74.1877 58.7953 84.5879 58.8009 94.9937L58.8855 94.8867V94.8811Z" fill="#34FCF1"/>
<path d="M71.2429 94.8926C69.7375 94.8926 68.2378 94.8926 66.7324 94.8926L66.7832 94.9827C66.817 90.6863 66.6986 86.3787 66.9692 82.0993C67.0538 80.7479 68.1871 79.464 68.8411 78.1464C69.591 79.464 70.8821 80.7366 70.9836 82.1049C71.2937 86.3843 71.1527 90.692 71.1865 94.9883L71.2373 94.8982L71.2429 94.8926Z" fill="#34FCF1"/>
<path d="M66.7336 94.8926C66.3502 97.1449 65.7977 99.386 65.6286 101.65C65.4707 103.739 64.6306 104.989 62.5332 104.972C60.3907 104.955 59.1334 103.592 58.9474 101.56C58.75 99.3466 58.891 97.1055 58.8854 94.8813L58.8008 94.9883C61.462 94.9883 64.1288 94.9883 66.79 94.9883L66.7393 94.8982L66.7336 94.8926Z" fill="#34FCF1"/>
<path d="M79.0924 94.8813C79.0924 96.7395 79.0924 98.5977 79.0755 100.45C79.0529 103.136 77.5306 105.079 75.4389 104.994C72.7213 104.876 72.4394 103.035 72.3153 100.816C72.2026 98.8286 71.6162 96.8634 71.2441 94.887L71.1934 94.9771C73.8546 94.9771 76.5214 94.9771 79.1826 94.9771L79.098 94.8701L79.0924 94.8813Z" fill="#34FCF1"/>
</g>
<defs>
<filter id="filter0_d_152_103" x="0.994141" y="-0.000915527" width="138.002" height="130.998" filterUnits="userSpaceOnUse" color-interpolation-filters="sRGB">
<feFlood flood-opacity="0" result="BackgroundImageFix"/>
<feColorMatrix in="SourceAlpha" type="matrix" values="0 0 0 0 0 0 0 0 0 0 0 0 0 0 0 0 0 0 127 0" result="hardAlpha"/>
<feOffset dx="1" dy="1"/>
<feGaussianBlur stdDeviation="12.5"/>
<feComposite in2="hardAlpha" operator="out"/>
<feColorMatrix type="matrix" values="0 0 0 0 0.203922 0 0 0 0 0.988235 0 0 0 0 0.945098 0 0 0 0.29 0"/>
<feBlend mode="normal" in2="BackgroundImageFix" result="effect1_dropShadow_152_103"/>
<feBlend mode="normal" in="SourceGraphic" in2="effect1_dropShadow_152_103" result="shape"/>
</filter>
</defs>
</svg>
