<svg width="147" height="127" viewBox="0 0 147 127" fill="none" xmlns="http://www.w3.org/2000/svg">
<g filter="url(#filter0_d_152_102)">
<path d="M45.2457 99.9597C39.8074 99.9597 34.3747 99.8963 28.942 99.9942C26.9936 100.029 25.2572 99.4009 25.0223 97.5748C24.8503 96.2383 25.5437 94.1587 26.5753 93.3983C32.7586 88.8416 39.5839 85.5754 47.4807 86.3473C53.6354 86.9464 59.2572 89.4523 64.0882 93.3349C65.1541 94.1933 65.8761 96.3708 65.6469 97.7533C65.3489 99.5161 63.4979 100.046 61.5609 100.006C56.1283 99.8963 50.6899 99.9654 45.2572 99.9654L45.2457 99.9597Z" fill="#34FCF1"/>
<path d="M100.094 99.9597C94.6616 99.9597 89.2175 100.104 83.7906 99.856C82.4668 99.7984 80.461 98.7038 80.1115 97.6381C79.7275 96.4745 80.461 94.176 81.4754 93.4444C85.355 90.6562 89.5613 88.5709 94.2891 87.1883C103.527 84.4866 111.011 88.2022 118.421 92.6609C120.094 93.6633 121.521 95.4203 120.788 97.6439C120.077 99.7926 118.157 100.023 116.106 99.9885C110.765 99.9021 105.424 99.9597 100.089 99.9597H100.094Z" fill="#34FCF1"/>
<path d="M45.406 24.0403C50.2599 23.4988 55.6926 29.415 55.7384 34.2424C55.7843 39.2829 50.2828 44.7786 45.343 44.7728C40.4949 44.7728 34.896 39.2369 34.9934 34.1675C35.0794 29.4783 40.4777 23.4527 45.406 24.0403Z" fill="#34FCF1"/>
<path d="M100.364 24.0403C105.269 23.47 110.828 29.4323 110.759 34.4498C110.69 39.306 105.304 44.744 100.427 44.7728C95.4984 44.8016 89.9512 39.2196 90.0142 34.2309C90.0715 29.4726 95.5156 23.4758 100.37 24.0403H100.364Z" fill="#34FCF1"/>
<path d="M83.1366 51.7489C83.5894 56.5706 77.8129 62.2045 72.6094 62.049C67.9733 61.9165 62.4375 56.536 62.5005 51.4955C62.5636 46.766 67.979 41.0342 73.1366 41.2012C77.7613 41.351 83.7154 46.6796 83.1309 51.7489H83.1366Z" fill="#34FCF1"/>
<path d="M45.4877 58.6041C50.2671 58.1029 55.7456 63.9788 55.7456 68.8868C55.7456 73.8467 50.2843 79.4057 45.2413 79.3366C40.4906 79.2732 34.8516 73.8179 34.9949 68.6506C35.1209 64.0421 40.4619 57.982 45.482 58.6041H45.4877Z" fill="#34FCF1"/>
<path d="M90.1339 68.7371C89.6296 64.0421 95.492 58.4601 100.415 58.4831C105.251 58.5062 110.873 63.9845 110.753 69.0885C110.644 73.8525 105.332 79.5094 100.065 79.3366C95.4863 79.1811 89.5035 73.8352 90.1339 68.7428V68.7371Z" fill="#34FCF1"/>
</g>
<defs>
<filter id="filter0_d_152_102" x="0.996094" y="0.000427246" width="145.988" height="126.007" filterUnits="userSpaceOnUse" color-interpolation-filters="sRGB">
<feFlood flood-opacity="0" result="BackgroundImageFix"/>
<feColorMatrix in="SourceAlpha" type="matrix" values="0 0 0 0 0 0 0 0 0 0 0 0 0 0 0 0 0 0 127 0" result="hardAlpha"/>
<feOffset dx="1" dy="1"/>
<feGaussianBlur stdDeviation="12.5"/>
<feComposite in2="hardAlpha" operator="out"/>
<feColorMatrix type="matrix" values="0 0 0 0 0.203922 0 0 0 0 0.988235 0 0 0 0 0.945098 0 0 0 0.29 0"/>
<feBlend mode="normal" in2="BackgroundImageFix" result="effect1_dropShadow_152_102"/>
<feBlend mode="normal" in="SourceGraphic" in2="effect1_dropShadow_152_102" result="shape"/>
</filter>
</defs>
</svg>
