<svg width="120" height="146" viewBox="0 0 120 146" fill="none" xmlns="http://www.w3.org/2000/svg">
<g filter="url(#filter0_d_152_88)">
<path d="M82.5265 51.1624C82.5265 51.3737 82.5586 51.5913 82.5265 51.8026C81.6174 57.212 83.9415 61.1619 87.3028 65.3166C89.9983 68.6583 91.4132 73.2099 92.7322 77.4286C93.7182 80.5719 94.1599 84.08 93.9486 87.3641C93.3084 97.2803 89.166 105.622 81.4125 111.985C74.1072 117.983 65.6111 120.871 56.2634 119.77C46.762 118.656 38.586 114.616 32.5741 106.736C27.26 99.7834 24.5965 92.0949 25.0447 83.3566C25.3904 76.5644 27.5097 70.2011 31.8506 65.1374C35.2951 61.1171 37.107 57.2184 36.6332 51.9242C36.0954 45.9706 36.7229 40.2347 40.1546 34.8573C43.3815 29.7999 47.6456 26.8295 53.2606 25.0819C62.6403 22.1627 70.3169 25.4148 76.6234 31.8357C81.707 37.0147 83.4293 43.8389 82.5329 51.1624H82.5265ZM74.5938 54.3761C76.2393 44.8632 73.3965 37.1043 66.9812 33.2889C62.5699 30.6642 55.2902 31.0547 51.2438 34.0763C43.9449 39.5305 43.1446 45.5481 44.6748 54.2352C54.8548 49.69 64.3562 49.6836 74.5874 54.3761H74.5938ZM59.4839 77.6399C54.2018 77.2814 49.656 84.2144 52.774 88.7789C54.1698 90.8146 56.2506 92.6519 55.7576 95.8784C55.2582 99.1304 57.0253 100.846 59.6311 100.795C62.2049 100.744 63.479 99.1304 63.415 95.6671C63.3766 93.6249 63.7415 92.0501 65.2974 90.4113C67.1669 88.4396 68.1465 85.6612 66.9108 82.9085C65.5406 79.8485 63.351 77.5951 59.4839 77.6399Z" fill="#34FCF1"/>
</g>
<defs>
<filter id="filter0_d_152_88" x="0.996094" y="0.00262451" width="119.004" height="145.997" filterUnits="userSpaceOnUse" color-interpolation-filters="sRGB">
<feFlood flood-opacity="0" result="BackgroundImageFix"/>
<feColorMatrix in="SourceAlpha" type="matrix" values="0 0 0 0 0 0 0 0 0 0 0 0 0 0 0 0 0 0 127 0" result="hardAlpha"/>
<feOffset dx="1" dy="1"/>
<feGaussianBlur stdDeviation="12.5"/>
<feComposite in2="hardAlpha" operator="out"/>
<feColorMatrix type="matrix" values="0 0 0 0 0.203922 0 0 0 0 0.988235 0 0 0 0 0.945098 0 0 0 0.29 0"/>
<feBlend mode="normal" in2="BackgroundImageFix" result="effect1_dropShadow_152_88"/>
<feBlend mode="normal" in="SourceGraphic" in2="effect1_dropShadow_152_88" result="shape"/>
</filter>
</defs>
</svg>
