<svg width="152" height="129" viewBox="0 0 152 129" fill="none" xmlns="http://www.w3.org/2000/svg">
<g filter="url(#filter0_d_152_90)">
<path d="M101.652 47.4384C97.0182 44.5927 93.1152 42.1969 89.2177 39.7954C87.4518 38.7044 85.804 37.3265 83.9031 36.6066C82.7726 36.1792 81.0236 36.376 79.955 36.989C77.0249 38.665 74.3985 38.62 71.4234 37.0678C70.2255 36.4435 68.1727 36.2635 67.0536 36.8766C62.0876 39.5873 57.324 42.6805 52.4649 45.5938C51.7 46.0493 50.8115 46.2968 49.4786 46.8479C53.286 57.3648 57.1103 67.9154 61.0584 78.8147C59.0169 78.8147 57.1666 78.9553 55.35 78.781C52.5943 78.5166 52.9261 75.7665 52.2737 74.1356C50.0635 68.6184 48.3031 62.9269 46.3291 57.3198C46.2054 56.9767 45.6711 56.4987 45.418 56.5437C44.985 56.628 44.4057 56.9992 44.2595 57.3873C41.948 63.6412 39.5297 69.8669 37.5219 76.2221C36.8696 78.2861 36.0035 78.9497 34.0576 78.8372C32.6628 78.7585 31.2568 78.8203 29.5527 78.8203C33.2083 68.6971 36.7796 58.8214 40.3283 49.0019C38.8717 48.4676 37.342 48.2989 36.459 47.4609C35.6941 46.7298 35.1542 45.0763 35.4523 44.1259C35.7504 43.1754 37.2464 41.8875 38.1518 41.9382C46.914 42.4274 53.5841 38.0126 60.1529 33.1085C61.722 31.9331 63.7691 31.4157 65.4957 30.4258C68.0153 28.9805 70.5404 27.5013 72.9025 25.8141C75.6639 23.8401 77.8629 25.2967 80.0956 26.6746C81.8109 27.7319 83.3744 29.0311 85.0954 30.0659C89.3246 32.6079 93.7113 34.9082 97.8506 37.5908C101.945 40.2453 106.258 41.8482 111.146 41.8032C113.446 41.7807 115.831 41.7076 116.084 44.8345C116.337 47.9221 114.216 48.4845 111.759 48.5632C111.59 48.5632 111.433 48.7319 111.005 48.9625C114.537 58.7258 118.086 68.5284 121.803 78.7978C119.666 78.7978 117.315 79.4502 115.797 78.6066C114.368 77.8136 113.581 75.5359 112.912 73.7531C110.859 68.2697 109.014 62.7076 107.035 57.1961C106.922 56.8811 106.365 56.5324 106.022 56.5381C105.679 56.5437 105.162 56.9149 105.038 57.2411C103.452 61.5603 101.905 65.8964 100.387 70.2381C99.5547 72.6283 98.8798 75.0748 97.9349 77.4143C97.6875 78.033 96.7427 78.6797 96.0565 78.7472C94.2231 78.9328 92.3616 78.8091 90.2751 78.8091C94.2119 67.9604 98.0362 57.4098 101.658 47.4384H101.652Z" fill="#34FCF1"/>
<path d="M45.4287 85.6872C50.7715 85.6872 56.1199 85.5635 61.4514 85.7772C62.7225 85.8278 64.4322 86.6939 65.0508 87.7175C65.5513 88.5442 65.0002 90.3383 64.4097 91.435C59.4999 100.58 51.2439 103.425 41.655 102.272C34.4337 101.401 28.9054 97.1433 25.3904 90.6307C24.1475 88.3249 25.9753 85.7379 28.8322 85.7097C34.3606 85.6535 39.889 85.6929 45.423 85.6929L45.4287 85.6872Z" fill="#34FCF1"/>
<path d="M106.056 85.6873C111.303 85.6873 116.556 85.5635 121.792 85.7716C123.181 85.8279 125.031 86.5702 125.728 87.6275C126.28 88.4599 125.728 90.4283 125.093 91.5812C120.11 100.658 111.815 103.47 102.248 102.261C95.1508 101.361 89.673 97.1546 86.1861 90.732C84.9264 88.4093 86.6361 85.7547 89.4649 85.7154C94.9933 85.6479 100.522 85.6929 106.05 85.6929L106.056 85.6873Z" fill="#34FCF1"/>
</g>
<defs>
<filter id="filter0_d_152_90" x="0.994141" y="0.851715" width="150.961" height="127.675" filterUnits="userSpaceOnUse" color-interpolation-filters="sRGB">
<feFlood flood-opacity="0" result="BackgroundImageFix"/>
<feColorMatrix in="SourceAlpha" type="matrix" values="0 0 0 0 0 0 0 0 0 0 0 0 0 0 0 0 0 0 127 0" result="hardAlpha"/>
<feOffset dx="1" dy="1"/>
<feGaussianBlur stdDeviation="12.5"/>
<feComposite in2="hardAlpha" operator="out"/>
<feColorMatrix type="matrix" values="0 0 0 0 0.203922 0 0 0 0 0.988235 0 0 0 0 0.945098 0 0 0 0.29 0"/>
<feBlend mode="normal" in2="BackgroundImageFix" result="effect1_dropShadow_152_90"/>
<feBlend mode="normal" in="SourceGraphic" in2="effect1_dropShadow_152_90" result="shape"/>
</filter>
</defs>
</svg>
