<svg width="119" height="138" viewBox="0 0 119 138" fill="none" xmlns="http://www.w3.org/2000/svg">
<g filter="url(#filter0_d_152_99)">
<path d="M41.5674 98.8779C41.5674 98.0343 41.3818 97.1401 41.5955 96.3584C43.4008 89.7502 39.1772 85.4478 35.6622 80.9261C34.9423 80.0038 33.6094 79.5651 32.569 78.879C28.9021 76.4663 28.1035 72.507 27.1081 68.6714C26.5513 66.5174 26.3601 64.2116 25.4883 62.1982C23.8236 58.3458 24.8078 54.9657 26.5232 51.5126C27.153 50.2416 27.7548 48.785 27.7661 47.4127C27.8111 42.3905 30.0663 38.9373 34.3461 36.4065C35.769 35.5686 36.7476 33.8701 37.7374 32.436C40.302 28.7298 44.3006 27.9368 48.2655 26.992C50.3464 26.4971 52.5398 26.2327 54.4688 25.3779C58.3156 23.6738 61.69 24.7199 65.1263 26.4521C66.3186 27.0538 67.6908 27.6668 68.9731 27.6556C74.1191 27.6219 77.5778 29.9671 80.2717 34.2638C81.4809 36.1928 83.7305 37.4807 85.547 39.0105C88.6796 41.6425 88.9158 45.3824 89.5626 49.0212C89.8888 50.8602 90.4568 52.7105 91.2329 54.4033C92.9763 58.222 91.9472 61.6189 90.1531 65.0496C89.5401 66.225 88.9608 67.6085 88.9608 68.8964C88.9608 74.0311 86.1882 77.0456 82.4201 80.2681C78.7308 83.4232 74.2765 86.7526 75.0583 93.1246C75.6601 98.0175 75.3226 103.051 75.0808 108.006C75.0133 109.355 74.1134 111.217 73.028 111.802C72.1057 112.302 70.0867 111.695 69.0575 110.913C66.0655 108.636 63.2872 106.071 60.509 103.523C59.0467 102.179 57.7926 102.117 56.3191 103.461C53.6027 105.93 50.9201 108.456 48.0068 110.671C46.882 111.526 45.0261 112.201 43.7607 111.897C41.8935 111.453 41.4211 109.569 41.5167 107.584C41.6573 104.688 41.5505 101.774 41.5505 98.8723L41.5674 98.8779ZM48.8729 33.7239C46.0159 33.5833 42.5741 36.5134 41.4549 39.4941C41.1906 40.2027 40.5213 41.0801 39.8633 41.2713C35.7353 42.4748 34.183 44.82 34.5261 49.173C34.6217 50.3822 34.3518 51.9457 33.6206 52.8342C30.6118 56.518 30.5499 59.583 33.5813 63.3455C34.183 64.0879 34.841 65.6064 34.498 66.1463C33.1932 68.199 34.0199 70.1618 34.9929 71.5622C36.0615 73.0975 38.0692 73.9805 39.6608 75.1615C40.257 75.6058 41.1737 75.9658 41.3649 76.5507C42.8553 81.0949 44.52 82.3715 49.1879 82.0397C50.9876 81.9103 52.3992 82.1015 53.867 83.4738C55.9704 85.4422 58.4618 86.2296 61.3188 84.3624C63.4503 82.9733 65.5931 80.7405 68.5626 82.7933C68.675 82.872 68.9337 82.7764 69.1081 82.7146C72.0607 81.6629 74.3665 79.97 75.3451 76.7812C75.5363 76.157 76.2562 75.4315 76.8805 75.2515C81.0253 74.048 82.6001 71.6634 82.2514 67.3723C82.1558 66.1631 82.4201 64.5997 83.1456 63.7111C86.1432 60.0442 86.2107 56.9229 83.2018 53.1886C82.6001 52.4462 82.0827 51.2202 82.2401 50.3428C83.0669 45.6749 81.5203 43.0091 76.8242 41.305C76.2506 41.097 75.5701 40.5121 75.3957 39.9609C73.9728 35.4673 72.235 34.1513 67.5671 34.4888C65.7618 34.6181 64.3614 34.3875 62.8992 33.0321C60.7846 31.0806 58.3494 30.417 55.4136 32.1098C53.4002 33.274 51.5387 36.5921 48.8842 33.7183L48.8729 33.7239Z" fill="#34FCF1"/>
<path d="M58.3612 75.0715C49.4922 75.1728 41.4218 67.2373 41.5624 58.0871C41.6973 49.1337 49.1998 41.4794 58.4175 41.4288C67.3147 41.3838 75.3288 49.308 75.222 58.4189C75.1208 67.2204 67.399 75.1503 58.3669 75.0659L58.3612 75.0715Z" fill="#34FCF1"/>
</g>
<defs>
<filter id="filter0_d_152_99" x="0.630859" y="0.510406" width="117.5" height="137.474" filterUnits="userSpaceOnUse" color-interpolation-filters="sRGB">
<feFlood flood-opacity="0" result="BackgroundImageFix"/>
<feColorMatrix in="SourceAlpha" type="matrix" values="0 0 0 0 0 0 0 0 0 0 0 0 0 0 0 0 0 0 127 0" result="hardAlpha"/>
<feOffset dx="1" dy="1"/>
<feGaussianBlur stdDeviation="12.5"/>
<feComposite in2="hardAlpha" operator="out"/>
<feColorMatrix type="matrix" values="0 0 0 0 0.203922 0 0 0 0 0.988235 0 0 0 0 0.945098 0 0 0 0.29 0"/>
<feBlend mode="normal" in2="BackgroundImageFix" result="effect1_dropShadow_152_99"/>
<feBlend mode="normal" in="SourceGraphic" in2="effect1_dropShadow_152_99" result="shape"/>
</filter>
</defs>
</svg>
