<svg width="135" height="135" viewBox="0 0 135 135" fill="none" xmlns="http://www.w3.org/2000/svg">
<g filter="url(#filter0_d_152_94)">
<path d="M99.1985 58.3626C98.428 59.5043 97.8712 60.6685 97.0164 61.529C92.0448 66.5624 87.0282 71.5453 81.9778 76.5C79.2839 79.1433 77.8835 79.1602 75.2796 76.5732C69.1776 70.5161 63.098 64.4253 57.0579 58.3064C54.3246 55.5338 54.3358 54.2402 57.086 51.4282C62.0239 46.3779 66.9842 41.35 71.9952 36.3728C74.2954 34.0895 76.1626 34.067 78.4516 36.3166C84.7617 42.5311 91.0324 48.785 97.2526 55.0895C98.0456 55.8937 98.4561 57.0804 99.1985 58.3626Z" fill="#34FCF1"/>
<path d="M59.526 69.3969C61.0332 70.9098 62.5799 72.462 64.1546 74.0423C58.5081 80.6056 53.1147 86.8538 47.755 93.1302C43.9588 97.5732 40.2863 102.129 36.4114 106.498C34.3586 108.816 31.1755 109.44 29.0383 108.354C25.8214 106.723 24.3142 104.373 24.7078 101.257C25.0903 98.2255 27.458 96.5102 29.5389 94.7049C33.6163 91.1674 37.7837 87.7368 41.9117 84.2555C47.6144 79.447 53.3171 74.6329 59.5316 69.3913L59.526 69.3969Z" fill="#34FCF1"/>
<path d="M68.6305 24C69.7947 24.8942 71.1557 25.4172 71.4481 26.3002C71.7968 27.3519 71.6619 29.0785 70.9814 29.8658C68.4731 32.7791 65.6554 35.4223 62.9503 38.1669C59.1203 42.0587 55.3185 45.9842 51.4492 49.8423C49.4302 51.8557 47.5012 52.03 45.9546 50.5228C44.2899 48.8974 44.4754 47.019 46.6294 44.8707C52.7821 38.7236 58.946 32.5766 65.1549 26.4858C66.0772 25.5803 67.2751 24.9561 68.6305 24Z" fill="#34FCF1"/>
<path d="M85.3448 89.1428C84.1243 88.243 82.6171 87.6974 82.3415 86.7863C82.0097 85.6728 82.2965 83.8675 83.0558 83.0295C86.8407 78.8396 90.8506 74.8466 94.8155 70.8254C97.2732 68.3396 99.7816 65.9044 102.295 63.4749C104.573 61.2703 106.317 61.0622 107.953 62.7381C109.567 64.3916 109.331 66.0225 107.025 68.3509C100.912 74.5204 94.7931 80.6787 88.6236 86.792C87.7631 87.6468 86.6383 88.2261 85.3391 89.1428H85.3448Z" fill="#34FCF1"/>
</g>
<defs>
<filter id="filter0_d_152_94" x="0.646484" y="0" width="134.346" height="134.872" filterUnits="userSpaceOnUse" color-interpolation-filters="sRGB">
<feFlood flood-opacity="0" result="BackgroundImageFix"/>
<feColorMatrix in="SourceAlpha" type="matrix" values="0 0 0 0 0 0 0 0 0 0 0 0 0 0 0 0 0 0 127 0" result="hardAlpha"/>
<feOffset dx="1" dy="1"/>
<feGaussianBlur stdDeviation="12.5"/>
<feComposite in2="hardAlpha" operator="out"/>
<feColorMatrix type="matrix" values="0 0 0 0 0.203922 0 0 0 0 0.988235 0 0 0 0 0.945098 0 0 0 0.29 0"/>
<feBlend mode="normal" in2="BackgroundImageFix" result="effect1_dropShadow_152_94"/>
<feBlend mode="normal" in="SourceGraphic" in2="effect1_dropShadow_152_94" result="shape"/>
</filter>
</defs>
</svg>
