<svg width="108" height="105" viewBox="0 0 108 105" fill="none" xmlns="http://www.w3.org/2000/svg">
<g filter="url(#filter0_d_152_151)">
<path d="M76.0486 34.9001C76.0486 40.0954 76.0778 44.9129 76.0439 49.7305C75.9762 58.9638 71.3015 63.6749 62.0875 63.7669C56.6482 63.8201 51.2135 63.7766 45.4209 63.7766V53.8896C50.4537 53.8896 55.385 53.9138 60.321 53.8848C65.4216 53.8509 65.8863 53.4151 65.9396 48.4378C65.988 43.9639 65.9493 39.4901 65.9493 34.8565C64.1152 34.5999 62.7747 34.4111 60.3938 34.0722C64.2701 30.557 67.5025 27.6229 70.9868 24.4661C74.4904 27.6471 77.6795 30.5474 81.4106 33.9366C79.4216 34.2949 77.9844 34.5515 76.0583 34.8953L76.0486 34.9001Z" fill="#34FCF1"/>
<path d="M24.7285 68.8653C27.061 68.5215 28.4354 68.3181 30.2211 68.0518C30.2211 62.4112 30.1388 56.9496 30.2646 51.4881C30.313 49.4255 30.5502 47.2757 31.218 45.3438C32.2827 42.2693 34.6635 39.9549 37.8477 39.5773C45.4889 38.6719 53.1737 39.1221 61.0859 39.3061V49.0284C56.4934 49.0284 52.0462 49.0284 47.5941 49.0284C42.7322 49.0317 40.2996 51.4219 40.2964 56.1991C40.2964 59.7482 40.3352 63.2924 40.3739 66.8414C40.3739 67.1513 40.5286 67.4563 40.6931 68.0809C42.0578 68.2842 43.5435 68.5021 45.8616 68.8459C42.0966 72.269 38.8349 75.2322 35.3458 78.4036C31.8519 75.2613 28.653 72.3852 24.7332 68.8604L24.7285 68.8653Z" fill="#34FCF1"/>
</g>
<defs>
<filter id="filter0_d_152_151" x="0.728516" y="0.466064" width="106.682" height="103.938" filterUnits="userSpaceOnUse" color-interpolation-filters="sRGB">
<feFlood flood-opacity="0" result="BackgroundImageFix"/>
<feColorMatrix in="SourceAlpha" type="matrix" values="0 0 0 0 0 0 0 0 0 0 0 0 0 0 0 0 0 0 127 0" result="hardAlpha"/>
<feOffset dx="1" dy="1"/>
<feGaussianBlur stdDeviation="12.5"/>
<feComposite in2="hardAlpha" operator="out"/>
<feColorMatrix type="matrix" values="0 0 0 0 0.203922 0 0 0 0 0.988235 0 0 0 0 0.945098 0 0 0 0.29 0"/>
<feBlend mode="normal" in2="BackgroundImageFix" result="effect1_dropShadow_152_151"/>
<feBlend mode="normal" in="SourceGraphic" in2="effect1_dropShadow_152_151" result="shape"/>
</filter>
</defs>
</svg>
