<svg width="96" height="96" viewBox="0 0 96 96" fill="none" xmlns="http://www.w3.org/2000/svg">
<g filter="url(#filter0_d_152_149)">
<path d="M24.9639 46.5068C25.0801 34.0731 35.1797 24.1232 47.5828 24.2346C60.0003 24.3459 69.8723 34.3926 69.8384 46.8845C69.8046 59.5409 59.5259 69.6699 46.9632 69.4181C34.565 69.1712 24.8478 59.047 24.9639 46.5068ZM48.1974 60.6497C50.046 58.6016 51.0912 57.0522 52.4946 55.9677C54.6432 54.3069 55.5577 52.3121 55.1803 49.6733C54.8028 47.0055 52.8237 46.0033 50.5782 45.3157C49.4991 44.9865 48.4005 44.7347 47.3068 44.4539C45.8744 44.0811 44.1032 43.6937 44.7565 41.757C45.4049 39.8348 47.273 40.0188 48.8651 40.5466C49.5862 40.7838 50.1088 41.6505 50.8299 41.8635C52.0397 42.2218 53.3367 42.2896 54.5997 42.4736C54.7691 42.1298 54.9384 41.7861 55.1077 41.4423C52.9543 38.7067 50.8056 35.9711 48.3956 32.9062C47.7133 32.9498 46.6293 33.0127 46.5809 33.0176C44.6887 35.1673 43.4887 36.7506 42.0708 38.1015C38.4123 41.5924 39.2979 46.2453 44.0743 47.9981C45.2793 48.4387 46.5567 48.6808 47.8004 49.0197C49.2086 49.4022 51.0378 49.7556 50.5636 51.6391C50.0893 53.5322 48.1586 53.6678 46.5374 53.2805C45.5066 53.0335 44.6113 52.2201 43.6483 51.6778C42.3078 50.9177 41.011 50.8208 39.8303 51.7456C39.8303 52.3073 39.7528 52.651 39.8399 52.9415C40.8755 56.2533 45.4486 56.6794 46.0438 60.4608C46.0777 60.6739 47.8053 60.6206 48.1827 60.6497H48.1974Z" fill="#34FCF1"/>
</g>
<defs>
<filter id="filter0_d_152_149" x="0.962891" y="0.233643" width="94.876" height="95.1892" filterUnits="userSpaceOnUse" color-interpolation-filters="sRGB">
<feFlood flood-opacity="0" result="BackgroundImageFix"/>
<feColorMatrix in="SourceAlpha" type="matrix" values="0 0 0 0 0 0 0 0 0 0 0 0 0 0 0 0 0 0 127 0" result="hardAlpha"/>
<feOffset dx="1" dy="1"/>
<feGaussianBlur stdDeviation="12.5"/>
<feComposite in2="hardAlpha" operator="out"/>
<feColorMatrix type="matrix" values="0 0 0 0 0.203922 0 0 0 0 0.988235 0 0 0 0 0.945098 0 0 0 0.29 0"/>
<feBlend mode="normal" in2="BackgroundImageFix" result="effect1_dropShadow_152_149"/>
<feBlend mode="normal" in="SourceGraphic" in2="effect1_dropShadow_152_149" result="shape"/>
</filter>
</defs>
</svg>
