<svg width="101" height="106" viewBox="0 0 101 106" fill="none" xmlns="http://www.w3.org/2000/svg">
<g filter="url(#filter0_d_152_175)">
<path d="M36.3606 47.8727C35.0249 51.3733 33.5924 54.84 32.431 58.3939C32.2133 59.0669 33.1472 60.0692 33.3989 60.9601C33.7425 62.1657 34.1249 63.4149 34.12 64.6447C34.12 65.2208 33.3312 66.1505 32.7602 66.2715C32.2085 66.3877 31.3034 65.8115 30.8824 65.2838C30.321 64.5769 30.0792 63.6231 29.363 62.0107C28.6274 63.5892 28.3419 64.6059 27.7321 65.3709C27.3111 65.8987 26.3722 66.4264 25.8011 66.3054C25.2253 66.1795 24.3252 65.1482 24.4269 64.7028C24.7898 63.0662 25.172 61.2457 26.1544 59.9675C30.1419 54.7819 32.644 49.0686 32.8715 42.5032C32.9828 39.235 34.0521 37.705 37.4154 37.6517C45.2985 37.5258 53.1866 37.5113 61.0746 37.6517C64.6218 37.7146 65.8413 39.4044 65.5994 42.9292C65.5268 44.0041 65.3234 45.2388 65.7348 46.149C67.9657 51.0441 68.3964 56.8349 72.9308 60.6163C73.5793 61.1586 74.0778 62.3593 73.9956 63.1921C73.8843 64.2912 73.139 65.3274 72.6648 66.3926C71.9243 65.7341 71.1306 65.1288 70.4627 64.4026C70.0562 63.9668 69.8433 63.3519 69.1513 62.1318C68.4448 63.5746 68.1399 64.5382 67.5495 65.2789C67.1285 65.8115 66.243 66.4119 65.7107 66.3006C65.1106 66.1747 64.3557 65.3419 64.2395 64.7076C64.075 63.8264 64.1186 62.5772 64.6412 61.9526C66.8044 59.3526 65.8221 56.8591 64.7284 54.3123C63.8138 52.1771 62.8602 50.0612 61.0068 48.1487C60.6681 52.2545 60.2907 56.3604 59.9955 60.471C59.6277 65.6324 58.7468 66.4991 53.4866 66.5378C50.2684 66.562 47.0456 66.6008 43.8324 66.5233C40.0432 66.4313 39.0077 65.5452 38.577 61.7348C38.1802 58.2196 38.0687 54.6706 37.7977 51.1361C37.7203 50.0951 37.5363 49.0589 37.4057 48.0228C37.0573 47.9695 36.7137 47.9163 36.3653 47.8679L36.3606 47.8727Z" fill="#34FCF1"/>
<path d="M41.6835 32.9841C40.5753 26.53 41.7076 25.092 47.4566 25.0097C48.5842 24.9951 49.7117 24.9951 50.8344 25.0097C56.7238 25.0823 57.6628 26.225 56.8159 32.8776C54.1785 32.1949 51.5942 31.0038 49.01 30.999C46.5855 30.999 44.1611 32.2578 41.6786 32.9793L41.6835 32.9841Z" fill="#34FCF1"/>
<path d="M43.2031 71.5488H54.7982V79.0923C51.6188 79.0923 48.6424 79.1069 45.6614 79.0875C44.108 79.0778 43.3145 78.1482 43.2274 76.7005C43.1306 75.1414 43.208 73.5679 43.208 71.5488H43.2031Z" fill="#34FCF1"/>
</g>
<defs>
<filter id="filter0_d_152_175" x="0.418945" y="0.998779" width="99.5859" height="104.099" filterUnits="userSpaceOnUse" color-interpolation-filters="sRGB">
<feFlood flood-opacity="0" result="BackgroundImageFix"/>
<feColorMatrix in="SourceAlpha" type="matrix" values="0 0 0 0 0 0 0 0 0 0 0 0 0 0 0 0 0 0 127 0" result="hardAlpha"/>
<feOffset dx="1" dy="1"/>
<feGaussianBlur stdDeviation="12.5"/>
<feComposite in2="hardAlpha" operator="out"/>
<feColorMatrix type="matrix" values="0 0 0 0 0.203922 0 0 0 0 0.988235 0 0 0 0 0.945098 0 0 0 0.29 0"/>
<feBlend mode="normal" in2="BackgroundImageFix" result="effect1_dropShadow_152_175"/>
<feBlend mode="normal" in="SourceGraphic" in2="effect1_dropShadow_152_175" result="shape"/>
</filter>
</defs>
</svg>
