<svg width="102" height="109" viewBox="0 0 102 109" fill="none" xmlns="http://www.w3.org/2000/svg">
<g filter="url(#filter0_d_152_179)">
<path d="M48.3745 28.7195C55.2365 28.7195 60.6419 31.8908 64.4794 37.793C65.6844 39.6474 66.7637 41.7923 67.146 43.9372C67.9106 48.227 69.759 51.7712 72.7593 54.8555C73.5965 55.7173 74.0807 56.9229 75.0389 58.4771C72.7886 59.5326 70.9592 60.3945 68.6219 61.4936C68.5299 63.3915 68.2542 65.5945 68.3558 67.783C68.5107 71.0609 66.9911 72.9299 63.9811 73.8159C63.5214 73.9515 63.0615 74.1161 62.5969 74.2323C58.3867 75.283 54.8638 76.9679 55.6671 82.5118H35.3569C35.2649 80.7058 35.0229 79.1274 35.1293 77.578C35.4245 73.4576 34.1179 70.1749 31.1466 67.1827C25.2475 61.2369 23.6312 53.9549 25.5524 45.1089C26.2251 46.4211 26.6413 47.1473 26.9801 47.9075C28.8142 52.023 32.2403 54.2115 36.0149 53.645C39.8573 53.0688 43.0512 50.0669 43.448 45.84C43.6996 43.1528 44.8513 41.0806 45.9014 38.7517C47.1741 35.9289 47.4598 32.6655 48.3745 28.7243V28.7195Z" fill="#34FCF1"/>
<path d="M38.2794 42.7025H31.7126C30.4447 40.669 29.2107 38.8049 28.0929 36.873C26.0071 33.2707 26.6799 28.8598 29.6318 26.3615C32.6709 23.7856 37.2149 23.8002 40.2588 26.405C43.3124 29.0148 43.9414 33.1593 41.8073 36.8778C40.7765 38.6741 39.6636 40.422 38.2747 42.7073L38.2794 42.7025Z" fill="#34FCF1"/>
<path d="M31.1074 45.6028H38.3954C38.4631 47.7816 37.2437 48.8129 35.308 49.0017C33.0964 49.2148 31.848 48.0285 31.1124 45.6028H31.1074Z" fill="#34FCF1"/>
</g>
<defs>
<filter id="filter0_d_152_179" x="0.78418" y="0.44043" width="100.255" height="108.071" filterUnits="userSpaceOnUse" color-interpolation-filters="sRGB">
<feFlood flood-opacity="0" result="BackgroundImageFix"/>
<feColorMatrix in="SourceAlpha" type="matrix" values="0 0 0 0 0 0 0 0 0 0 0 0 0 0 0 0 0 0 127 0" result="hardAlpha"/>
<feOffset dx="1" dy="1"/>
<feGaussianBlur stdDeviation="12.5"/>
<feComposite in2="hardAlpha" operator="out"/>
<feColorMatrix type="matrix" values="0 0 0 0 0.203922 0 0 0 0 0.988235 0 0 0 0 0.945098 0 0 0 0.29 0"/>
<feBlend mode="normal" in2="BackgroundImageFix" result="effect1_dropShadow_152_179"/>
<feBlend mode="normal" in="SourceGraphic" in2="effect1_dropShadow_152_179" result="shape"/>
</filter>
</defs>
</svg>
