<svg width="107" height="105" viewBox="0 0 107 105" fill="none" xmlns="http://www.w3.org/2000/svg">
<g filter="url(#filter0_d_152_161)">
<path d="M78.8081 78.9999C78.208 78.4673 77.5113 78.0073 77.0177 77.3875C74.3222 74.0031 71.6412 72.3763 66.8165 74.2646C62.1611 76.0851 56.7799 72.7685 54.4038 68.1494C51.9551 63.3802 52.9715 57.5653 56.8913 53.9581C60.753 50.4042 66.7196 49.8571 71.2347 52.646C75.59 55.338 77.8403 60.7512 76.5288 65.6172C76.1562 66.9922 75.5126 68.2946 74.9126 69.8343C76.4902 71.4951 77.9709 73.1752 79.5824 74.7197C81.0729 76.148 80.8503 77.5183 79.7856 78.9999H78.8178H78.8081ZM73.1413 62.5959C73.0736 58.064 69.1877 54.3503 64.692 54.5101C60.4867 54.6602 56.688 58.4755 56.6105 62.6201C56.5283 66.847 60.6561 71.0061 64.9533 71.0206C69.3232 71.0351 73.2091 67.0358 73.1413 62.591V62.5959Z" fill="#34FCF1"/>
<path d="M44.1644 28.6598C48.0261 22.8787 53.5478 22.9223 57.6321 28.6598C62.0794 28.6598 66.7396 28.6114 71.395 28.6744C75.9245 28.7325 76.7666 29.5556 76.815 34.039C76.8731 39.4376 76.8294 44.8363 76.8294 50.7917C75.1018 49.7846 74.0469 49.1358 72.958 48.5451C66.2944 44.9137 58.6289 45.7852 53.5138 51.363C51.2829 53.7936 49.0376 54.5634 45.9647 54.4763C40.656 54.3213 35.3424 54.5053 30.0289 54.3988C25.9542 54.3213 24.8024 53.1932 24.7298 49.2374C24.633 44.0858 24.633 38.9293 24.7298 33.7776C24.8072 29.696 25.8284 28.7421 29.9902 28.6792C34.6504 28.6114 39.3106 28.6647 44.1644 28.6647V28.6598ZM53.4606 48.3417C52.2217 47.5767 51.2927 46.6132 50.8137 46.7972C50.0249 47.1071 49.2166 48.0948 49.0327 48.9324C48.9408 49.3488 50.349 50.6367 50.8474 50.5205C51.6895 50.3268 52.3476 49.3343 53.4606 48.3417Z" fill="#34FCF1"/>
<path d="M48.5192 58.8872C48.7176 62.2523 48.8822 64.9685 49.0613 67.9898C48.0644 68.1399 47.0142 68.4304 45.9689 68.4401C40.6699 68.4885 35.3662 68.5272 30.0672 68.4401C25.6779 68.3675 24.8118 67.4039 24.7102 62.9301C24.6811 61.6519 24.7102 60.3736 24.7102 58.8872H48.5242H48.5192Z" fill="#34FCF1"/>
</g>
<defs>
<filter id="filter0_d_152_161" x="0.657227" y="0.340332" width="105.985" height="104.659" filterUnits="userSpaceOnUse" color-interpolation-filters="sRGB">
<feFlood flood-opacity="0" result="BackgroundImageFix"/>
<feColorMatrix in="SourceAlpha" type="matrix" values="0 0 0 0 0 0 0 0 0 0 0 0 0 0 0 0 0 0 127 0" result="hardAlpha"/>
<feOffset dx="1" dy="1"/>
<feGaussianBlur stdDeviation="12.5"/>
<feComposite in2="hardAlpha" operator="out"/>
<feColorMatrix type="matrix" values="0 0 0 0 0.203922 0 0 0 0 0.988235 0 0 0 0 0.945098 0 0 0 0.29 0"/>
<feBlend mode="normal" in2="BackgroundImageFix" result="effect1_dropShadow_152_161"/>
<feBlend mode="normal" in="SourceGraphic" in2="effect1_dropShadow_152_161" result="shape"/>
</filter>
</defs>
</svg>
