<svg width="100" height="96" viewBox="0 0 100 96" fill="none" xmlns="http://www.w3.org/2000/svg">
<g filter="url(#filter0_d_152_150)">
<path d="M53.9535 61.4015C53.3147 64.2727 53.9487 65.8172 56.6974 66.2917C57.37 66.4079 57.8782 67.4731 58.4589 68.1026C57.733 68.6013 57.0168 69.5115 56.2812 69.526C51.1371 69.6422 45.9881 69.6374 40.8439 69.4922C40.2052 69.4728 39.6003 68.3979 38.976 67.8072C39.4938 67.2891 39.9245 66.5823 40.5488 66.2869C43.2491 64.9941 43.2733 65.0377 43.854 61.4064C39.6487 61.4064 35.5304 61.4112 31.4122 61.4064C24.7437 61.3918 24.1243 60.8108 24.1098 54.347C24.0904 46.4549 24.0614 38.5677 24.1243 30.6755C24.163 25.8047 25.2276 24.7782 30.1492 24.7637C42.5425 24.7298 54.9311 24.7298 67.3244 24.7637C72.3815 24.7782 73.1654 25.5723 73.1945 30.7239C73.2477 38.9356 73.2428 47.1473 73.1945 55.359C73.1654 60.6753 72.4056 61.3676 66.9179 61.3967C62.5964 61.4209 58.2702 61.4015 53.9535 61.4015ZM69.3134 28.7291H27.957C27.5505 37.1151 27.6908 45.1961 27.836 53.7564C42.0634 53.7418 55.6231 53.8241 69.3182 53.6983V28.7291H69.3134ZM48.4126 60.4768C49.5208 59.1549 50.6628 58.3851 50.6241 57.683C50.5806 56.9422 49.5111 55.9933 48.6836 55.6834C48.2964 55.5381 46.9172 56.6517 46.893 57.2376C46.8543 58.0752 47.6431 58.9516 48.4174 60.4816L48.4126 60.4768Z" fill="#34FCF1"/>
</g>
<defs>
<filter id="filter0_d_152_150" x="0.0859375" y="0.738281" width="99.1465" height="94.8694" filterUnits="userSpaceOnUse" color-interpolation-filters="sRGB">
<feFlood flood-opacity="0" result="BackgroundImageFix"/>
<feColorMatrix in="SourceAlpha" type="matrix" values="0 0 0 0 0 0 0 0 0 0 0 0 0 0 0 0 0 0 127 0" result="hardAlpha"/>
<feOffset dx="1" dy="1"/>
<feGaussianBlur stdDeviation="12.5"/>
<feComposite in2="hardAlpha" operator="out"/>
<feColorMatrix type="matrix" values="0 0 0 0 0.203922 0 0 0 0 0.988235 0 0 0 0 0.945098 0 0 0 0.29 0"/>
<feBlend mode="normal" in2="BackgroundImageFix" result="effect1_dropShadow_152_150"/>
<feBlend mode="normal" in="SourceGraphic" in2="effect1_dropShadow_152_150" result="shape"/>
</filter>
</defs>
</svg>
