<svg width="112" height="94" viewBox="0 0 112 94" fill="none" xmlns="http://www.w3.org/2000/svg">
<g filter="url(#filter0_d_152_183)">
<path d="M81.5909 61.0816C82.9507 61.5852 84.2477 62.0645 85.4914 62.5293C84.8719 66.6255 84.4703 67.1048 81.3683 67.4389C80.5698 67.526 79.7568 67.4921 78.9535 67.4921C62.9984 67.4921 47.0434 67.4921 31.0835 67.4921C30.1156 67.4921 29.1429 67.5163 28.1847 67.405C25.5377 67.0951 24.052 65.7636 24.4634 62.5874C25.5958 62.1177 26.8588 61.5948 28.267 61.0138C28.267 51.7805 28.267 42.6005 28.267 33.4156C28.267 32.1277 28.2041 30.8301 28.2912 29.547C28.5283 25.9835 29.7962 24.652 33.416 24.589C39.5377 24.4825 45.6642 24.5503 51.7907 24.5503C59.5287 24.5503 67.2618 24.5261 74.9998 24.56C80.6085 24.5842 81.5425 25.4606 81.5716 30.9657C81.6248 40.9494 81.586 50.9332 81.586 61.0864L81.5909 61.0816ZM77.6469 28.7191C71.1575 27.7507 35.584 28.0509 32.2352 29.0725V59.7985C36.2083 59.7985 39.8764 59.7501 43.5446 59.8131C46.5449 59.8615 49.4195 59.7598 52.4004 61.2414C54.4329 62.2533 57.7575 62.1613 59.8481 61.1688C62.5194 59.9051 65.0648 59.9438 67.7506 59.7792C71.0461 59.5807 74.4385 60.4231 77.6469 59.14V28.7191Z" fill="#34FCF1"/>
<path d="M50.8712 41.8839C48.7371 44.4937 47.145 46.4885 45.4996 48.4397C44.8851 49.166 44.2656 50.0133 43.4575 50.4055C42.9106 50.6669 41.9138 50.4055 41.3379 50.0327C41.0233 49.8293 40.8878 48.7254 41.1443 48.3526C43.9462 44.2806 47.0337 40.4411 50.8519 36.311C53.8183 39.7487 56.388 42.7216 59.3109 46.1011C60.7143 44.7793 61.9677 43.6221 63.192 42.4359C64.5809 41.0947 65.9358 39.7197 67.3199 38.3736C68.2635 37.4585 69.483 36.3352 70.4799 37.8168C70.9203 38.4705 70.4219 40.3055 69.7444 41.0512C67.044 44.024 64.097 46.7741 61.2563 49.6211C59.6061 51.2722 58.1688 50.9478 56.8042 49.2435C55.0136 46.9969 53.1989 44.7696 50.8664 41.8839H50.8712Z" fill="#34FCF1"/>
</g>
<defs>
<filter id="filter0_d_152_183" x="0.395508" y="0.529053" width="111.096" height="92.9695" filterUnits="userSpaceOnUse" color-interpolation-filters="sRGB">
<feFlood flood-opacity="0" result="BackgroundImageFix"/>
<feColorMatrix in="SourceAlpha" type="matrix" values="0 0 0 0 0 0 0 0 0 0 0 0 0 0 0 0 0 0 127 0" result="hardAlpha"/>
<feOffset dx="1" dy="1"/>
<feGaussianBlur stdDeviation="12.5"/>
<feComposite in2="hardAlpha" operator="out"/>
<feColorMatrix type="matrix" values="0 0 0 0 0.203922 0 0 0 0 0.988235 0 0 0 0 0.945098 0 0 0 0.29 0"/>
<feBlend mode="normal" in2="BackgroundImageFix" result="effect1_dropShadow_152_183"/>
<feBlend mode="normal" in="SourceGraphic" in2="effect1_dropShadow_152_183" result="shape"/>
</filter>
</defs>
</svg>
