<svg width="100" height="100" viewBox="0 0 100 100" fill="none" xmlns="http://www.w3.org/2000/svg">
<g filter="url(#filter0_d_152_148)">
<path d="M73.9403 49.0074C73.9307 62.6128 62.9697 73.6424 49.4682 73.6376C36.0537 73.6376 24.8798 62.4337 24.875 48.9977C24.875 35.4794 35.8843 24.5273 49.4778 24.5225C63.2068 24.5225 73.95 35.2664 73.9403 49.0025V49.0074ZM42.9206 47.4871C42.9206 49.9806 42.9206 51.7382 42.9206 53.4957C42.9206 57.0448 42.9206 60.5889 42.9448 64.138C42.9593 65.8955 43.4481 67.5224 45.529 67.4933C47.3534 67.4691 47.7018 65.9391 47.8664 64.3849C48.1567 61.5864 48.539 58.7926 48.8826 55.9989C50.0585 56.9528 50.407 57.9211 50.5522 58.9234C50.8571 60.9908 51.0215 63.0825 51.2974 65.1548C51.4861 66.5782 52.1588 67.658 53.7799 67.503C55.3962 67.3481 55.8318 66.1037 55.8512 64.719C55.9044 61.3346 55.9044 57.9453 55.9092 54.5609C55.9157 50.0322 58.1821 47.5468 62.7084 47.1046C64.2183 46.9593 65.8345 46.8141 65.9265 44.95C66.0184 43.052 64.4457 42.6453 62.9068 42.6404C54.0412 42.6114 45.1757 42.6114 36.315 42.6356C34.8245 42.6356 33.1598 42.8535 33.126 44.7708C33.0873 47.0465 34.9891 47.0029 36.6102 47.1046C38.4975 47.2208 40.3849 47.337 42.9255 47.4919L42.9206 47.4871ZM53.7122 34.6031C53.7606 32.2984 51.8491 30.3229 49.5359 30.289C47.1985 30.2551 45.2483 32.1483 45.2193 34.4772C45.1903 36.6269 47.3099 38.8638 49.4053 38.9026C51.5346 38.9413 53.6686 36.8109 53.7122 34.6031Z" fill="#34FCF1"/>
</g>
<defs>
<filter id="filter0_d_152_148" x="0.875" y="0.522461" width="99.0654" height="99.115" filterUnits="userSpaceOnUse" color-interpolation-filters="sRGB">
<feFlood flood-opacity="0" result="BackgroundImageFix"/>
<feColorMatrix in="SourceAlpha" type="matrix" values="0 0 0 0 0 0 0 0 0 0 0 0 0 0 0 0 0 0 127 0" result="hardAlpha"/>
<feOffset dx="1" dy="1"/>
<feGaussianBlur stdDeviation="12.5"/>
<feComposite in2="hardAlpha" operator="out"/>
<feColorMatrix type="matrix" values="0 0 0 0 0.203922 0 0 0 0 0.988235 0 0 0 0 0.945098 0 0 0 0.29 0"/>
<feBlend mode="normal" in2="BackgroundImageFix" result="effect1_dropShadow_152_148"/>
<feBlend mode="normal" in="SourceGraphic" in2="effect1_dropShadow_152_148" result="shape"/>
</filter>
</defs>
</svg>
