<svg width="111" height="93" viewBox="0 0 111 93" fill="none" xmlns="http://www.w3.org/2000/svg">
<g filter="url(#filter0_d_152_154)">
<path d="M81.1427 66.9068C79.8458 64.5973 78.7812 62.9898 78.0311 61.2516C77.6101 60.2784 77.2084 58.7581 77.6681 58.0415C80.441 53.7178 79.1005 48.968 79.3763 44.3974C79.507 42.1943 79.4006 39.972 79.4006 37.2364C77.552 37.5656 76.3228 37.6673 75.1662 38.011C69.1607 39.8025 63.1987 41.7441 57.1593 43.4338C55.5478 43.8841 53.6169 44.0681 52.0442 43.6178C44.4756 41.4536 36.9699 39.0617 29.469 36.665C28.0657 36.2147 26.7832 35.3868 24.5088 34.2732C26.5026 33.0821 27.4607 32.2445 28.5689 31.8959C36.3891 29.4459 44.2191 27.0299 52.0974 24.7736C53.525 24.3669 55.272 24.4153 56.7044 24.8268C64.4279 27.0444 72.0788 29.504 79.7926 31.7506C82.0041 32.3946 82.9913 33.6147 82.9719 35.8807C82.9332 40.5481 82.9671 45.2156 82.9865 49.8879C82.9962 52.4347 83.1365 54.8072 84.356 57.3007C86.1513 60.9611 82.8655 63.4014 81.133 66.902L81.1427 66.9068Z" fill="#34FCF1"/>
<path d="M38.3154 55.8288V44.3489C42.3223 45.5448 46.068 46.4647 49.6635 47.7914C52.8768 48.9728 55.8771 48.876 59.0517 47.7672C62.5263 46.5519 66.0929 45.5981 69.9352 44.4312C71.2806 48.4111 70.2788 52.2168 70.6175 55.7465C64.975 57.9011 59.6324 59.9346 54.2463 61.9875C49.3393 60.0895 44.1274 58.0705 38.3154 55.8239V55.8288Z" fill="#34FCF1"/>
</g>
<defs>
<filter id="filter0_d_152_154" x="0.508789" y="0.492188" width="110.368" height="92.4146" filterUnits="userSpaceOnUse" color-interpolation-filters="sRGB">
<feFlood flood-opacity="0" result="BackgroundImageFix"/>
<feColorMatrix in="SourceAlpha" type="matrix" values="0 0 0 0 0 0 0 0 0 0 0 0 0 0 0 0 0 0 127 0" result="hardAlpha"/>
<feOffset dx="1" dy="1"/>
<feGaussianBlur stdDeviation="12.5"/>
<feComposite in2="hardAlpha" operator="out"/>
<feColorMatrix type="matrix" values="0 0 0 0 0.203922 0 0 0 0 0.988235 0 0 0 0 0.945098 0 0 0 0.29 0"/>
<feBlend mode="normal" in2="BackgroundImageFix" result="effect1_dropShadow_152_154"/>
<feBlend mode="normal" in="SourceGraphic" in2="effect1_dropShadow_152_154" result="shape"/>
</filter>
</defs>
</svg>
