<svg width="104" height="102" viewBox="0 0 104 102" fill="none" xmlns="http://www.w3.org/2000/svg">
<g filter="url(#filter0_d_152_170)">
<path d="M48.4313 62.7251C40.6691 62.6234 34.3683 56.1887 34.4361 48.4466C34.5038 40.6852 40.8869 34.3473 48.6442 34.3377C56.6677 34.328 63.0313 40.845 62.8377 48.8776C62.649 56.697 56.2757 62.8267 48.4361 62.7202L48.4313 62.7251ZM46.0069 45.895C44.8793 46.0403 43.7033 45.9725 42.7258 46.384C41.816 46.7665 41.1192 47.6623 40.3256 48.3304C40.9982 49.1051 41.5305 50.1606 42.3774 50.5867C43.4566 51.129 44.7921 51.1629 45.9584 51.4001C46.2488 52.9011 46.331 54.218 46.7908 55.3898C47.0327 56.0095 48.0151 56.8375 48.5087 56.7455C49.3024 56.5954 50.3041 55.9078 50.609 55.1864C51.0832 54.0631 51.0493 52.7219 51.2525 51.2936C52.443 51.0951 53.6238 51.1241 54.5772 50.6642C55.4628 50.2381 56.6 49.3763 56.7306 48.5628C56.9774 47.0425 55.7095 46.4228 54.2625 46.2775C53.1979 46.171 52.1478 45.9386 51.1025 45.7691C51.0057 44.5151 51.1703 43.4451 50.7928 42.622C50.3863 41.7311 49.4718 41.0726 48.7797 40.3173C48.0297 41.0048 47.0134 41.5568 46.5972 42.4089C46.1278 43.3676 46.1956 44.5926 46.002 45.895H46.0069Z" fill="#34FCF1"/>
<path d="M77.3223 46.7423C75.2317 50.0783 73.3347 53.1092 71.2393 56.4452C67.3921 53.666 67.3049 49.7393 65.6208 46.4566C66.7048 45.5028 67.6291 44.6845 68.7615 43.6871C67.5323 37.4993 63.7336 33.1998 58.3475 30.0865C57.6555 29.6846 56.8909 29.399 56.1553 29.0794C54.7519 28.4742 52.5113 28.1692 53.5808 26.0049C54.5341 24.073 56.407 25.2302 57.8491 25.8257C64.9918 28.7599 69.6714 33.9793 72.1007 41.2759C72.8556 43.5451 74.5945 45.3688 77.3174 46.7471L77.3223 46.7423Z" fill="#34FCF1"/>
<path d="M36.3096 75.0765C34.1126 70.9078 32.4526 67.7703 30.6621 64.3665C34.8142 62.3039 38.2308 63.6935 41.5167 64.4585C42.2087 64.6183 42.4167 66.8697 42.9442 68.4384C49.1095 70.7964 54.9602 69.1938 60.5253 65.6883C61.4787 65.0879 62.2626 64.1486 63.2788 63.7613C64.0144 63.4805 64.9967 63.863 65.8678 63.9501C65.6694 64.8119 65.7711 65.9982 65.2339 66.4872C59.2865 71.9148 52.3565 74.2195 44.3234 72.646C41.6908 72.1279 38.9906 71.1305 36.3145 75.0814L36.3096 75.0765Z" fill="#34FCF1"/>
<path d="M33.0668 24.6057C36.6189 24.7655 40.1708 24.9253 44.0326 25.0996C43.6067 29.6702 40.8822 32.0427 38.3658 34.3329C37.7609 34.8848 35.8058 33.9455 34.1024 33.626C29.4228 38.3467 27.25 44.1084 27.942 50.9499C28.0243 51.7488 28.513 52.6251 28.2953 53.303C28.0098 54.2036 27.221 54.9444 26.6451 55.7578C26.016 55.138 24.9998 54.6103 24.8256 53.8792C22.8608 45.7498 24.961 38.5791 30.3229 32.309C31.9876 30.3578 34.625 28.8616 31.6392 25.2497C32.1134 25.0366 32.5878 24.8236 33.0668 24.6057Z" fill="#34FCF1"/>
</g>
<defs>
<filter id="filter0_d_152_170" x="0.101562" y="0.605713" width="103.221" height="100.476" filterUnits="userSpaceOnUse" color-interpolation-filters="sRGB">
<feFlood flood-opacity="0" result="BackgroundImageFix"/>
<feColorMatrix in="SourceAlpha" type="matrix" values="0 0 0 0 0 0 0 0 0 0 0 0 0 0 0 0 0 0 127 0" result="hardAlpha"/>
<feOffset dx="1" dy="1"/>
<feGaussianBlur stdDeviation="12.5"/>
<feComposite in2="hardAlpha" operator="out"/>
<feColorMatrix type="matrix" values="0 0 0 0 0.203922 0 0 0 0 0.988235 0 0 0 0 0.945098 0 0 0 0.29 0"/>
<feBlend mode="normal" in2="BackgroundImageFix" result="effect1_dropShadow_152_170"/>
<feBlend mode="normal" in="SourceGraphic" in2="effect1_dropShadow_152_170" result="shape"/>
</filter>
</defs>
</svg>
