<svg width="108" height="104" viewBox="0 0 108 104" fill="none" xmlns="http://www.w3.org/2000/svg">
<g filter="url(#filter0_d_152_165)">
<path d="M51.8163 76.8593H25.1084C25.6359 74.1333 27.5184 73.165 29.2218 72.0853C34.9176 68.4781 35.1692 68.1876 31.4623 62.9585C28.7717 59.1577 28.462 54.8582 28.3168 50.6749C28.0797 43.8044 35.4934 39.7034 41.7264 42.8651C42.4377 43.2234 43.1298 43.6591 43.8799 43.8964C47.1755 44.9325 48.5498 47.6149 48.4143 50.578C48.2062 55.1342 47.9546 59.7484 44.9397 63.7477C41.9926 67.655 42.3991 68.7928 46.4205 71.3542C48.5063 72.6808 51.0372 73.5717 51.8211 76.8593H51.8163Z" fill="#34FCF1"/>
<path d="M80.8086 77.1739C73.4965 77.1739 66.9296 77.2368 60.3627 77.14C58.1947 77.1061 58.1948 76.9221 56.835 73.1116C58.1803 72.182 59.6272 71.2282 61.0209 70.2017C62.8888 68.8218 63.1308 67.0836 61.9403 65.1421C61.5241 64.4594 61.0208 63.8154 60.4982 63.2102C57.3333 59.5353 57.2075 54.892 57.0962 50.5344C56.9316 43.9592 64.3261 39.7662 70.2445 42.6713C71.1059 43.0925 71.9237 43.6203 72.819 43.9399C76.0709 45.0922 77.2663 47.7116 77.1114 50.7668C76.884 55.3568 76.642 59.942 73.5788 63.9365C70.7913 67.5678 71.2366 68.7734 74.9822 71.2185C77.0631 72.5791 79.5794 73.4893 80.8037 77.1739H80.8086Z" fill="#34FCF1"/>
<path d="M32.1301 37.8437C31.7333 36.4009 31.4961 35.5245 31.1961 34.4303C30.0443 34.2124 28.7571 34.1204 27.5763 33.7185C25.3115 32.9438 24.063 31.0459 24.3582 28.9203C24.6873 26.5478 26.1633 25.2405 28.4958 24.8871C28.9701 24.8145 29.4588 24.8193 29.9428 24.8193C36.379 24.8193 42.8103 24.8096 49.2466 24.829C50.045 24.829 50.8775 24.858 51.6324 25.0759C53.8778 25.7296 55.0343 27.5114 54.8456 29.8209C54.6424 32.3096 53.0744 33.6749 50.8193 33.9074C48.1142 34.1882 45.3558 34.101 42.6265 34.0187C38.7454 33.9074 34.8595 33.6411 32.135 37.8486L32.1301 37.8437Z" fill="#34FCF1"/>
<path d="M74.5171 34.3628C74.2751 35.4667 74.0719 36.3818 73.6896 38.1249C70.2005 32.276 64.674 34.663 59.9219 33.8205V25.0327C61.7656 24.9552 63.6094 24.8293 65.4531 24.8148C69.1503 24.7906 72.8573 24.7131 76.5496 24.8729C79.308 24.9939 81.0065 26.5724 81.3017 28.7996C81.6163 31.2205 80.092 33.2105 77.2707 33.9416C76.3609 34.1788 75.4027 34.2321 74.5219 34.358L74.5171 34.3628Z" fill="#34FCF1"/>
</g>
<defs>
<filter id="filter0_d_152_165" x="0.31543" y="0.774658" width="107.027" height="102.419" filterUnits="userSpaceOnUse" color-interpolation-filters="sRGB">
<feFlood flood-opacity="0" result="BackgroundImageFix"/>
<feColorMatrix in="SourceAlpha" type="matrix" values="0 0 0 0 0 0 0 0 0 0 0 0 0 0 0 0 0 0 127 0" result="hardAlpha"/>
<feOffset dx="1" dy="1"/>
<feGaussianBlur stdDeviation="12.5"/>
<feComposite in2="hardAlpha" operator="out"/>
<feColorMatrix type="matrix" values="0 0 0 0 0.203922 0 0 0 0 0.988235 0 0 0 0 0.945098 0 0 0 0.29 0"/>
<feBlend mode="normal" in2="BackgroundImageFix" result="effect1_dropShadow_152_165"/>
<feBlend mode="normal" in="SourceGraphic" in2="effect1_dropShadow_152_165" result="shape"/>
</filter>
</defs>
</svg>
