<svg width="106" height="100" viewBox="0 0 106 100" fill="none" xmlns="http://www.w3.org/2000/svg">
<g filter="url(#filter0_d_152_147)">
<path d="M51.8616 73.217C45.256 73.217 38.6504 73.217 32.0496 73.217C30.9221 73.217 29.78 73.2848 28.6718 73.1444C25.0956 72.6941 23.7357 70.2587 25.2214 66.942C25.8118 65.6251 26.6103 64.4001 27.3362 63.1461C33.5498 52.4118 39.7682 41.6824 45.9963 30.9579C46.8867 29.4279 47.6852 27.8059 48.7837 26.4405C50.7001 24.0631 53.4149 24.1455 55.3167 26.5906C56.2991 27.8543 57.0444 29.3068 57.8525 30.6964C64.071 41.4258 70.2798 52.1649 76.4934 62.8991C77.0596 63.8772 77.65 64.8359 78.1726 65.8333C80.5535 70.3555 79.1163 72.9604 74.098 73.2025C73.135 73.2509 72.1671 73.217 71.1993 73.217C64.7582 73.217 58.3123 73.217 51.8713 73.217H51.8616ZM50.2501 56.5951C53.7004 56.0819 53.8941 56.0867 53.9522 54.5519C54.078 51.0755 53.9908 47.5894 53.9908 43.7644C52.4955 43.8467 51.3195 43.9096 50.2501 43.9677V56.5951ZM52.2922 59.8149C51.2372 61.1561 50.1436 61.9356 50.1533 62.7055C50.163 63.514 51.2276 64.3081 51.8325 65.107C52.5874 64.4437 53.8167 63.8675 53.9667 63.088C54.1119 62.3327 53.1439 61.3643 52.2922 59.8198V59.8149Z" fill="#34FCF1"/>
</g>
<defs>
<filter id="filter0_d_152_147" x="0.62793" y="0.706055" width="104.665" height="98.5273" filterUnits="userSpaceOnUse" color-interpolation-filters="sRGB">
<feFlood flood-opacity="0" result="BackgroundImageFix"/>
<feColorMatrix in="SourceAlpha" type="matrix" values="0 0 0 0 0 0 0 0 0 0 0 0 0 0 0 0 0 0 127 0" result="hardAlpha"/>
<feOffset dx="1" dy="1"/>
<feGaussianBlur stdDeviation="12.5"/>
<feComposite in2="hardAlpha" operator="out"/>
<feColorMatrix type="matrix" values="0 0 0 0 0.203922 0 0 0 0 0.988235 0 0 0 0 0.945098 0 0 0 0.29 0"/>
<feBlend mode="normal" in2="BackgroundImageFix" result="effect1_dropShadow_152_147"/>
<feBlend mode="normal" in="SourceGraphic" in2="effect1_dropShadow_152_147" result="shape"/>
</filter>
</defs>
</svg>
