<svg width="118" height="96" viewBox="0 0 118 96" fill="none" xmlns="http://www.w3.org/2000/svg">
<g filter="url(#filter0_d_152_157)">
<path d="M57.4562 69.3355C48.2858 69.3355 39.1154 69.3355 29.9402 69.3355C27.6561 69.3355 25.2606 69.4372 24.375 66.658C23.5233 63.9805 24.7476 61.8888 26.7559 60.3153C33.5502 55.0038 41.1285 52.5732 49.7521 54.5148C51.4652 54.9021 53.2171 55.3718 54.7705 56.1562C56.9869 57.2746 58.9274 57.1197 61.1631 56.1174C69.7819 52.2585 78.1006 53.4593 86.0757 58.0735C87.45 58.8676 88.7033 59.9279 89.8696 61.0173C91.665 62.6974 92.3764 64.7891 91.3504 67.1422C90.4068 69.3016 88.384 69.3259 86.4096 69.3259C76.7552 69.3259 67.1008 69.3259 57.4465 69.3259L57.4562 69.3355ZM59.537 64.8133C53.4298 55.9916 34.7795 56.0642 29.2337 64.8133H59.537Z" fill="#34FCF1"/>
<path d="M82.7516 36.7212C82.6887 44.0129 77.8977 48.9806 71.1614 48.7336C64.3816 48.4867 59.9731 42.9961 60.4231 35.3558C60.8345 28.3352 66.1915 23.658 73.0052 24.3697C78.9382 24.9895 82.8145 29.8991 82.7516 36.7212Z" fill="#34FCF1"/>
<path d="M55.4769 36.3385C55.5446 43.7126 50.9619 48.7723 44.245 48.7335C37.7313 48.6996 33.1533 43.7562 33.0953 36.7065C33.0372 29.3567 37.6296 24.3164 44.361 24.3357C50.9133 24.3551 55.4139 29.2114 55.4816 36.3385H55.4769ZM51.291 36.1061C51.1845 35.5154 51.1312 34.0338 50.6279 32.7266C49.4955 29.7924 46.1371 27.9429 43.3062 28.4609C39.609 29.134 37.3442 32.2424 37.3684 36.5951C37.3974 41.3207 40.3542 44.7294 44.3853 44.6809C48.2471 44.6325 51.1313 41.3885 51.291 36.1013V36.1061Z" fill="#34FCF1"/>
</g>
<defs>
<filter id="filter0_d_152_157" x="0.100586" y="0.29834" width="117.723" height="95.0376" filterUnits="userSpaceOnUse" color-interpolation-filters="sRGB">
<feFlood flood-opacity="0" result="BackgroundImageFix"/>
<feColorMatrix in="SourceAlpha" type="matrix" values="0 0 0 0 0 0 0 0 0 0 0 0 0 0 0 0 0 0 127 0" result="hardAlpha"/>
<feOffset dx="1" dy="1"/>
<feGaussianBlur stdDeviation="12.5"/>
<feComposite in2="hardAlpha" operator="out"/>
<feColorMatrix type="matrix" values="0 0 0 0 0.203922 0 0 0 0 0.988235 0 0 0 0 0.945098 0 0 0 0.29 0"/>
<feBlend mode="normal" in2="BackgroundImageFix" result="effect1_dropShadow_152_157"/>
<feBlend mode="normal" in="SourceGraphic" in2="effect1_dropShadow_152_157" result="shape"/>
</filter>
</defs>
</svg>
