<svg width="35" height="33" viewBox="0 0 35 33" fill="none" xmlns="http://www.w3.org/2000/svg">
<path d="M16.9134 0C17.5558 0.843964 18.0308 1.24032 18.2084 1.73918C19.1686 4.46925 20.1355 7.20273 20.9419 9.98064C21.4032 11.5729 22.1241 12.3007 23.9043 12.2016C26.6276 12.0513 29.3679 12.1435 32.098 12.2426C32.7984 12.2699 33.4818 12.7175 34.172 12.9738C33.7927 13.541 33.5262 14.2483 33.0137 14.6481C30.7346 16.4351 28.418 18.1777 26.0501 19.8485C24.9157 20.6481 24.6082 21.3895 25.131 22.7938C26.1595 25.5547 26.9385 28.4146 27.7449 31.2506C27.8952 31.7802 27.7073 32.4055 27.6731 32.9863C27 32.8497 26.2039 32.9009 25.6777 32.5456C23.1287 30.8405 20.6139 29.074 18.1674 27.2255C17.32 26.5866 16.7528 26.6002 15.9362 27.2118C13.4761 29.0433 10.9886 30.8371 8.44647 32.5524C7.91344 32.9112 7.10706 32.8633 6.42711 33C6.40319 32.3269 6.20843 31.6059 6.38611 30.9875C7.20615 28.0934 8.05353 25.1993 9.04784 22.3599C9.46128 21.1811 9.07175 20.5831 8.19704 19.9544C5.7574 18.1913 3.32802 16.4146 0.953303 14.5661C0.492027 14.2073 0.310934 13.4932 0 12.9431C0.577449 12.7005 1.14806 12.2597 1.73235 12.2426C4.86219 12.1538 7.99544 12.1333 11.1253 12.1674C12.0171 12.1777 12.4408 11.8667 12.7141 11.033C13.7016 8.00911 14.7369 5.00228 15.7927 2.00228C15.9909 1.4385 16.377 0.936219 16.91 0H16.9134Z" fill="#63FFF6"/>
</svg>
