<svg width="3052" height="271" viewBox="0 0 3052 271" fill="none" xmlns="http://www.w3.org/2000/svg">
<g clip-path="url(#clip0_107_74)">
<path d="M0 262.618H1073.23V22.3505H240.359C107.603 22.3505 0 129.912 0 262.618Z" fill="#13F2DC"/>
<mask id="mask0_107_74" style="mask-type:luminance" maskUnits="userSpaceOnUse" x="0" y="22" width="1074" height="241">
<path d="M0 262.618H1073.23V22.3505H240.359C107.603 22.3505 0 129.912 0 262.618Z" fill="white"/>
</mask>
<g mask="url(#mask0_107_74)">
<path d="M1073.23 72.6392H0V189.979H1073.23V72.6392Z" fill="#142664"/>
</g>
<mask id="mask1_107_74" style="mask-type:luminance" maskUnits="userSpaceOnUse" x="0" y="22" width="1074" height="241">
<path d="M0 262.618H1073.23V22.3505H240.359C107.603 22.3505 0 129.912 0 262.618Z" fill="white"/>
</mask>
<g mask="url(#mask1_107_74)">
<path d="M1073.23 103.371H0V167.629H1073.23V103.371Z" fill="#FF2E93"/>
</g>
<path d="M2168.82 22.3505H1095.59V262.618H2168.82V22.3505Z" fill="#13F2DC"/>
<path d="M2168.82 72.6392H1095.59V189.979H2168.82V72.6392Z" fill="#142664"/>
<path d="M3019.24 262.618H2188.38V22.3505H2459.01C2507.42 22.3505 2555.44 30.6202 2601.05 46.7963L3030.17 199.003C3043.25 203.641 3051.97 215.99 3051.97 229.875C3052 247.951 3037.33 262.618 3019.24 262.618Z" fill="#13F2DC"/>
<path d="M2542.55 30.6482C2542.55 30.6482 2450.12 108.121 2693.67 140.892C2708.48 142.876 2723.44 143.881 2738.39 143.881H2874.78C2874.78 143.881 2583.66 36.1799 2542.55 30.6482Z" fill="#FF2E93"/>
<path d="M2188.38 77.0254C2188.38 77.0254 2388.22 46.0979 2569.88 132.706C2751.55 219.314 2936.01 182.995 2936.01 182.995C2936.01 182.995 2894.09 213.727 2636.96 191.376C2379.83 169.026 2188.38 187.186 2188.38 187.186" fill="#142664"/>
<path d="M2428.74 166.93H2189.78V102.673H2428.74C2446.49 102.673 2460.88 117.061 2460.88 134.802C2460.88 152.542 2446.49 166.93 2428.74 166.93Z" fill="#FF2E93"/>
<path d="M2370.05 166.93H2350.49L2378.44 103.371H2398L2370.05 166.93Z" fill="#F6FBF7"/>
<path d="M2392.75 166.93H2381.23L2411.64 103.371H2423.15L2392.75 166.93Z" fill="#F6FBF7"/>
<path d="M2216.33 166.93H2196.77L2224.72 103.371H2244.28L2216.33 166.93Z" fill="#F6FBF7"/>
<path d="M2239.03 166.93H2227.51L2257.92 103.371H2269.44L2239.03 166.93Z" fill="#F6FBF7"/>
<mask id="mask2_107_74" style="mask-type:luminance" maskUnits="userSpaceOnUse" x="2525" y="30" width="350" height="114">
<path d="M2542.55 30.6482C2542.55 30.6482 2450.12 108.121 2693.67 140.892C2708.48 142.876 2723.44 143.881 2738.39 143.881H2874.78C2874.78 143.881 2583.66 36.1799 2542.55 30.6482Z" fill="white"/>
</mask>
<g mask="url(#mask2_107_74)">
<path d="M2616.22 52.1326L2646.74 142.485H2677.49L2635.56 41.9072L2616.22 52.1326Z" fill="white"/>
</g>
<mask id="mask3_107_74" style="mask-type:luminance" maskUnits="userSpaceOnUse" x="2525" y="30" width="350" height="114">
<path d="M2542.55 30.6482C2542.55 30.6482 2450.12 108.121 2693.67 140.892C2708.48 142.876 2723.44 143.881 2738.39 143.881H2874.78C2874.78 143.881 2583.66 36.1799 2542.55 30.6482Z" fill="white"/>
</mask>
<g mask="url(#mask3_107_74)">
<path d="M2660.72 58.6702L2694.26 145.278H2702.64L2666.31 58.6702H2660.72Z" fill="white"/>
</g>
<path d="M2168.82 103.371H1095.59V167.629H2168.82V103.371Z" fill="#FF2E93"/>
<path d="M2073.79 166.93H2054.23L2082.18 103.371H2101.74L2073.79 166.93Z" fill="#F6FBF7"/>
<path d="M2096.49 166.93H2084.97L2115.38 103.371H2126.9L2096.49 166.93Z" fill="#F6FBF7"/>
<path d="M1201.8 166.93H1182.23L1210.18 103.371H1229.74L1201.8 166.93Z" fill="#F6FBF7"/>
<path d="M1224.49 166.93H1212.97L1243.38 103.371H1254.9L1224.49 166.93Z" fill="#F6FBF7"/>
<path d="M1637.79 166.93H1618.23L1646.18 103.371H1665.74L1637.79 166.93Z" fill="#F6FBF7"/>
<path d="M1660.49 166.93H1648.97L1679.38 103.371H1690.9L1660.49 166.93Z" fill="#F6FBF7"/>
<path d="M1599 166.93H1587.49L1617.9 103.371H1629.41L1599 166.93Z" fill="#F6FBF7"/>
<path d="M978.205 166.93H958.641L986.59 103.371H1006.15L978.205 166.93Z" fill="#F6FBF7"/>
<path d="M1000.9 166.93H989.385L1019.79 103.371H1031.31L1000.9 166.93Z" fill="#F6FBF7"/>
<path d="M106.205 166.93H86.6411L114.59 103.371H134.154L106.205 166.93Z" fill="#F6FBF7"/>
<path d="M128.899 166.93H117.385L147.793 103.371H159.308L128.899 166.93Z" fill="#F6FBF7"/>
<path d="M542.205 166.93H522.641L550.59 103.371H570.154L542.205 166.93Z" fill="#F6FBF7"/>
<path d="M564.899 166.93H553.385L583.793 103.371H595.308L564.899 166.93Z" fill="#F6FBF7"/>
<path d="M503.412 166.93H491.897L522.306 103.371H533.821L503.412 166.93Z" fill="#F6FBF7"/>
<path d="M2191.18 8.38147H2168.82V271H2191.18V8.38147Z" fill="#1C0C24"/>
<path d="M1092.8 8.38147H1070.44V271H1092.8V8.38147Z" fill="#1C0C24"/>
<path d="M2399.4 4.19067H2240.09C2229.27 4.19067 2220.53 12.9353 2220.53 23.7474H2418.96C2418.96 12.9353 2410.21 4.19067 2399.4 4.19067Z" fill="#1C0C24"/>
<path d="M1688.1 0H1528.79C1517.98 0 1509.23 8.74464 1509.23 19.5567H1707.67C1707.67 8.74464 1698.92 0 1688.1 0Z" fill="#1C0C24"/>
<path d="M525.436 5.58765H366.128C355.312 5.58765 346.564 14.3323 346.564 25.1443H545C545 14.3323 536.252 5.58765 525.436 5.58765Z" fill="#1C0C24"/>
</g>
<defs>
<clipPath id="clip0_107_74">
<rect width="3052" height="271" fill="white"/>
</clipPath>
</defs>
</svg>
