<svg width="97" height="94" viewBox="0 0 97 94" fill="none" xmlns="http://www.w3.org/2000/svg">
<g filter="url(#filter0_d_17_1489)">
<path d="M67.0251 44.1669C63.8236 42.7519 60.6752 41.3545 57.3499 39.882C56.2355 38.1619 55.161 35.7519 53.432 33.9831C49.7176 30.1847 45.0568 29.7248 40.4138 31.9402C36.1555 33.9699 33.9312 37.6976 34.0329 42.4644C34.1435 47.5099 36.7215 51.043 41.3557 53.0506C43.8143 54.1163 43.8143 54.1074 44.1017 57.0923C43.1023 57.1365 42.1118 57.2161 41.1213 57.2205C36.8497 57.2337 32.5781 57.2426 28.3065 57.2205C25.0918 57.2028 24.0128 56.1415 24.0084 53.0152C23.9995 46.3867 23.9951 39.7582 24.0084 33.1297C24.0128 30.1316 25.0962 29.0836 28.165 29.0571C30.0045 29.0394 31.8485 29.0261 33.688 29.0571C35.5054 29.088 36.8143 28.3319 37.5528 26.6781C38.4062 24.7678 39.8522 23.9453 41.9305 24.0028C44.3582 24.0691 46.7903 24.047 49.2223 24.0072C51.0795 23.9763 52.499 24.56 53.3303 26.3553C54.2235 28.2788 55.7093 29.2207 57.9203 29.0792C59.8262 28.9598 61.7497 29.0527 63.6644 29.0615C65.4509 29.0704 66.8792 29.9636 66.9588 31.6749C67.1577 35.973 67.0251 40.2844 67.0251 44.1669ZM60.4762 36.256C61.1881 35.239 62.0194 34.5536 61.9177 34.0672C61.7851 33.4216 60.9228 32.9263 60.3701 32.3647C59.8925 32.9219 59.0744 33.4614 59.0346 34.0495C58.9992 34.6155 59.7642 35.2346 60.4762 36.256Z" fill="#63FFF6"/>
<path d="M67.1535 54.5275C66.9147 55.35 66.7069 56.7694 66.1011 57.9899C65.4113 59.3828 65.681 60.2583 66.8219 61.1825C67.7858 61.9652 68.6083 62.9248 69.4839 63.818C70.3196 64.6714 70.9608 65.631 69.8686 66.6657C68.7764 67.7005 67.8566 66.9487 67.0208 66.1395C66.9147 66.0378 66.8042 65.9405 66.7113 65.8256C64.6861 63.3227 62.7935 61.8104 59.0392 63.4775C55.201 65.18 50.0804 62.2305 48.2718 58.3082C46.1669 53.7536 47.3432 48.8055 51.2256 45.8516C54.7101 43.2029 60.3304 43.3797 63.5364 46.2098C65.88 48.2748 67.0164 50.8749 67.1579 54.5275H67.1535ZM57.2174 47.2622C53.6533 47.2357 50.5668 50.2691 50.5402 53.8244C50.5137 57.3885 53.5516 60.4794 57.1024 60.506C60.6577 60.5325 63.7575 57.4858 63.784 53.9394C63.8105 50.3797 60.7726 47.2887 57.2218 47.2578L57.2174 47.2622Z" fill="#63FFF6"/>
<path d="M53.5114 40.8283C49.5287 43.4284 46.4098 46.5533 44.1546 50.2029C39.7946 49.4998 37.0839 46.17 37.274 41.7392C37.4377 37.9098 40.9133 34.3015 44.7294 34.0053C49.1691 33.6603 52.6403 36.3533 53.5159 40.8283H53.5114Z" fill="#63FFF6"/>
<path d="M33.8695 27.2131H29.0806C30.4116 25.095 32.313 25.042 33.8695 27.2131Z" fill="#63FFF6"/>
</g>
<defs>
<filter id="filter0_d_17_1489" x="0" y="0" width="96.4473" height="93.1698" filterUnits="userSpaceOnUse" color-interpolation-filters="sRGB">
<feFlood flood-opacity="0" result="BackgroundImageFix"/>
<feColorMatrix in="SourceAlpha" type="matrix" values="0 0 0 0 0 0 0 0 0 0 0 0 0 0 0 0 0 0 127 0" result="hardAlpha"/>
<feOffset dx="1" dy="1"/>
<feGaussianBlur stdDeviation="12.5"/>
<feComposite in2="hardAlpha" operator="out"/>
<feColorMatrix type="matrix" values="0 0 0 0 0.203922 0 0 0 0 0.988235 0 0 0 0 0.945098 0 0 0 1 0"/>
<feBlend mode="normal" in2="BackgroundImageFix" result="effect1_dropShadow_17_1489"/>
<feBlend mode="normal" in="SourceGraphic" in2="effect1_dropShadow_17_1489" result="shape"/>
</filter>
</defs>
</svg>
