<svg width="86" height="86" viewBox="0 0 86 86" fill="none" xmlns="http://www.w3.org/2000/svg">
<g filter="url(#filter0_d_17_1495)">
<path d="M40.3288 24.8167V44.9562H24.7906C24.7906 43.51 24.7906 42.0137 24.7906 40.5215C24.7906 36.4286 24.8198 32.3357 24.7781 28.2469C24.7573 26.2129 25.8201 24.95 27.6832 24.8709C31.822 24.7 35.9774 24.8167 40.3288 24.8167Z" fill="#63FFF6"/>
<path d="M59.1929 38.9711C59.1929 40.855 59.1929 42.7098 59.1929 44.5645C59.1929 48.2407 59.2262 51.9168 59.1762 55.5929C59.1429 58.0479 58.0009 59.1607 55.5918 59.1774C51.6531 59.2024 47.7143 59.1857 43.6631 59.1857V38.9711H59.1929Z" fill="#63FFF6"/>
<path d="M59.1473 35.6992H43.6675V24.8833C48.0022 24.8833 52.3452 24.7333 56.6632 25.0084C57.5426 25.0626 58.9014 26.6381 59.0347 27.6467C59.3765 30.2225 59.1473 32.8692 59.1473 35.6992Z" fill="#63FFF6"/>
<path d="M24.7945 48.3739H40.2951V59.1606C35.948 59.1606 31.6675 59.269 27.3911 59.1023C25.7948 59.0397 24.8278 57.7893 24.8028 56.0972C24.7653 53.6047 24.7945 51.1123 24.7945 48.3739Z" fill="#63FFF6"/>
</g>
<defs>
<filter id="filter0_d_17_1495" x="0.777832" y="0.777771" width="84.4448" height="84.4174" filterUnits="userSpaceOnUse" color-interpolation-filters="sRGB">
<feFlood flood-opacity="0" result="BackgroundImageFix"/>
<feColorMatrix in="SourceAlpha" type="matrix" values="0 0 0 0 0 0 0 0 0 0 0 0 0 0 0 0 0 0 127 0" result="hardAlpha"/>
<feOffset dx="1" dy="1"/>
<feGaussianBlur stdDeviation="12.5"/>
<feComposite in2="hardAlpha" operator="out"/>
<feColorMatrix type="matrix" values="0 0 0 0 0.203922 0 0 0 0 0.988235 0 0 0 0 0.945098 0 0 0 1 0"/>
<feBlend mode="normal" in2="BackgroundImageFix" result="effect1_dropShadow_17_1495"/>
<feBlend mode="normal" in="SourceGraphic" in2="effect1_dropShadow_17_1495" result="shape"/>
</filter>
</defs>
</svg>
