<svg width="99" height="94" viewBox="0 0 99 94" fill="none" xmlns="http://www.w3.org/2000/svg">
<g filter="url(#filter0_d_17_1543)">
<path d="M70.4441 54.382C69.3782 53.0497 68.2516 51.7594 67.2699 50.3616C66.8211 49.7212 66.6621 48.8797 66.377 48.127C67.3961 47.739 68.7284 46.748 69.3736 47.0799C70.748 47.7951 72.2065 49.0153 72.7816 50.3803C73.1602 51.2873 72.0523 52.8113 71.6128 54.0548C71.2248 54.1623 70.8368 54.2698 70.4488 54.3727L70.4441 54.382Z" fill="#63FFF6"/>
<path d="M62.3008 47.0612C60.5758 45.1492 58.9957 43.2278 57.238 41.4841C54.6574 38.9363 52.0862 39.2682 49.7301 42.4097C50.062 42.7697 50.4079 43.1577 50.7726 43.527C51.745 44.5087 52.7641 45.598 51.4972 46.9163C50.2537 48.2112 49.113 47.3604 48.1032 46.346C45.6349 43.8589 43.1525 41.3812 40.6842 38.8942C37.1172 35.3039 35.8831 35.3179 32.1104 38.6324C30.0722 40.4229 28.8427 42.3209 29.1606 45.2287C29.4551 47.9074 29.2213 50.6469 29.2213 53.7463H55.6204C52.8622 57.0234 50.6931 59.6039 46.1491 59.2159C40.2728 58.711 34.317 59.1084 28.3986 59.085C25.2617 59.071 24.0135 57.8135 24.0089 54.7C23.9995 45.8972 23.9948 37.0944 24.0089 28.2916C24.0089 25.2061 25.1495 24.0234 28.1975 24.014C40.5813 23.9953 52.9698 23.9953 65.3535 24.014C68.3969 24.0187 69.5376 25.2061 69.5984 28.2916C69.6217 29.6145 69.603 30.9422 69.603 32.2652C69.603 37.9717 67.1674 42.9037 62.2962 47.0612H62.3008ZM60.7394 36.2248C62.7169 36.2529 64.2643 34.6821 64.2316 32.6766C64.2035 30.7505 62.759 29.278 60.861 29.2406C59.0097 29.2032 57.2613 30.9375 57.294 32.7841C57.3221 34.5232 59.0004 36.1968 60.7348 36.2248H60.7394Z" fill="#63FFF6"/>
<path d="M55.4619 59.4263C58.3557 56.4904 60.9502 53.8585 64.2974 50.4598C65.5316 52.0727 66.8172 53.5453 67.8317 55.1908C68.1542 55.7144 68.0467 56.9486 67.6353 57.4067C65.5036 59.7535 63.2082 61.9554 60.6651 64.5172C58.9073 62.7969 57.201 61.1279 55.4619 59.4263Z" fill="#63FFF6"/>
<path d="M53.2639 63.6524C54.3858 64.8304 55.0543 65.5363 55.9706 66.4947C54.6429 66.9856 53.5584 67.3829 51.8848 68C52.399 66.3731 52.7403 65.2979 53.2639 63.6524Z" fill="#63FFF6"/>
</g>
<defs>
<filter id="filter0_d_17_1543" x="0" y="0" width="98.8594" height="94" filterUnits="userSpaceOnUse" color-interpolation-filters="sRGB">
<feFlood flood-opacity="0" result="BackgroundImageFix"/>
<feColorMatrix in="SourceAlpha" type="matrix" values="0 0 0 0 0 0 0 0 0 0 0 0 0 0 0 0 0 0 127 0" result="hardAlpha"/>
<feOffset dx="1" dy="1"/>
<feGaussianBlur stdDeviation="12.5"/>
<feComposite in2="hardAlpha" operator="out"/>
<feColorMatrix type="matrix" values="0 0 0 0 0.388235 0 0 0 0 1 0 0 0 0 0.964706 0 0 0 1 0"/>
<feBlend mode="normal" in2="BackgroundImageFix" result="effect1_dropShadow_17_1543"/>
<feBlend mode="normal" in="SourceGraphic" in2="effect1_dropShadow_17_1543" result="shape"/>
</filter>
</defs>
</svg>
