<svg width="114" height="114" viewBox="0 0 114 114" fill="none" xmlns="http://www.w3.org/2000/svg">
<g filter="url(#filter0_df_24_4182)">
<circle cx="57" cy="57" r="17" fill="#802EF2"/>
</g>
<path d="M56.9134 40C57.5558 40.844 58.0308 41.2403 58.2084 41.7392C59.1686 44.4692 60.1355 47.2027 60.9419 49.9806C61.4032 51.5729 62.1241 52.3007 63.9043 52.2016C66.6276 52.0513 69.3679 52.1435 72.098 52.2426C72.7984 52.2699 73.4818 52.7175 74.172 52.9738C73.7927 53.541 73.5262 54.2483 73.0137 54.6481C70.7346 56.4351 68.418 58.1777 66.0501 59.8485C64.9157 60.6481 64.6082 61.3895 65.131 62.7938C66.1595 65.5547 66.9385 68.4146 67.7449 71.2506C67.8952 71.7802 67.7073 72.4055 67.6731 72.9863C67 72.8497 66.2039 72.9009 65.6777 72.5456C63.1287 70.8405 60.6139 69.074 58.1674 67.2255C57.32 66.5866 56.7528 66.6002 55.9362 67.2118C53.4761 69.0433 50.9886 70.8371 48.4465 72.5524C47.9134 72.9112 47.1071 72.8633 46.4271 73C46.4032 72.3269 46.2084 71.6059 46.3861 70.9875C47.2062 68.0934 48.0535 65.1993 49.0478 62.3599C49.4613 61.1811 49.0718 60.5831 48.197 59.9544C45.7574 58.1913 43.328 56.4146 40.9533 54.5661C40.492 54.2073 40.3109 53.4932 40 52.9431C40.5774 52.7005 41.1481 52.2597 41.7323 52.2426C44.8622 52.1538 47.9954 52.1333 51.1253 52.1674C52.0171 52.1777 52.4408 51.8667 52.7141 51.033C53.7016 48.0091 54.7369 45.0023 55.7927 42.0023C55.9909 41.4385 56.377 40.9362 56.91 40H56.9134Z" fill="#802EF2"/>
<defs>
<filter id="filter0_df_24_4182" x="0" y="0" width="114" height="114" filterUnits="userSpaceOnUse" color-interpolation-filters="sRGB">
<feFlood flood-opacity="0" result="BackgroundImageFix"/>
<feColorMatrix in="SourceAlpha" type="matrix" values="0 0 0 0 0 0 0 0 0 0 0 0 0 0 0 0 0 0 127 0" result="hardAlpha"/>
<feOffset dy="4"/>
<feGaussianBlur stdDeviation="2"/>
<feComposite in2="hardAlpha" operator="out"/>
<feColorMatrix type="matrix" values="0 0 0 0 0 0 0 0 0 0 0 0 0 0 0 0 0 0 0.25 0"/>
<feBlend mode="normal" in2="BackgroundImageFix" result="effect1_dropShadow_24_4182"/>
<feBlend mode="normal" in="SourceGraphic" in2="effect1_dropShadow_24_4182" result="shape"/>
<feGaussianBlur stdDeviation="20" result="effect2_foregroundBlur_24_4182"/>
</filter>
</defs>
</svg>
